<svg width="38" height="41" viewBox="0 0 38 41" fill="none" xmlns="http://www.w3.org/2000/svg">
<path d="M32.612 32.5314V12.5312H12.6662V11.2812C12.6662 9.21346 14.344 7.53128 16.4057 7.53128H20.1455V0.03125H16.4057C10.2201 0.03125 5.18656 5.07858 5.18656 11.2812V12.5312H0.200195V20.0313H5.18648V32.5314H0.200195V40.0313H17.6529V32.5314H12.6662V20.0313H25.2016V32.5314H20.1455V40.0313H37.5982V32.5314H32.612Z" fill="#FFB912"/>
<path d="M28.8719 7.5312C30.9372 7.5312 32.6121 5.85241 32.6121 3.78118C32.6121 1.70978 30.9372 0.031163 28.8719 0.03125C26.8068 0.03125 25.1323 1.70978 25.1323 3.78118C25.1323 5.85241 26.8068 7.5312 28.8719 7.5312Z" fill="#FFB912"/>
</svg>
