<svg width="40" height="29" viewBox="0 0 40 29" fill="none" xmlns="http://www.w3.org/2000/svg">
<path d="M30.9756 2.52033C26.6667 2.52033 23.4146 5.36585 22.1138 9.8374C20.0813 6.66667 18.4553 3.08943 17.561 0H13.0081V11.9512C13.0081 14.3089 11.0569 16.2602 8.69919 16.2602C6.34146 16.2602 4.39024 14.3089 4.39024 11.9512V0.0813004H0V12.0325C0 16.9919 3.98374 20.9756 8.86179 20.9756C13.7398 20.9756 17.7236 16.9919 17.7236 12.0325V10C18.6179 11.7886 19.7561 13.7398 20.9756 15.4472L18.1301 28.6992H22.7642L24.7155 19.0244C26.5041 20.1626 28.5366 20.813 30.9756 20.813C35.935 20.813 40 16.748 40 11.5447C40 6.58537 35.935 2.52033 30.9756 2.52033ZM30.9756 16.2602C29.187 16.2602 27.3171 15.4472 25.8537 14.2276L26.3415 12.439V12.3577C26.6667 10.4065 27.7236 7.15447 31.0569 7.15447C33.5772 7.15447 35.6098 9.18699 35.6098 11.7073C35.5285 14.2276 33.3333 16.2602 30.9756 16.2602Z" fill="#FFB912"/>
</svg>
