<svg width="100" height="100" viewBox="0 0 100 100" fill="none" xmlns="http://www.w3.org/2000/svg">
<path d="M70.8984 25.7812C68.0943 23.0011 64.7612 20.8115 61.0961 19.3418C57.4311 17.8721 53.5086 17.1522 49.5606 17.2246C33.7676 17.4512 20.6133 30.4785 20.2383 46.2656C20.1197 51.1423 21.201 55.9735 23.3871 60.3344C25.5732 64.6953 28.7971 68.4524 32.7754 71.2754C33.3026 71.644 33.7341 72.1331 34.0341 72.7022C34.3341 73.2712 34.4938 73.9036 34.5 74.5469V80.3711C34.5005 80.6377 34.6067 80.8932 34.7952 81.0818C34.9837 81.2703 35.2393 81.3764 35.5059 81.377H64.4941C64.7609 81.377 65.0168 81.271 65.2054 81.0823C65.394 80.8937 65.5 80.6379 65.5 80.3711V74.543C65.5041 73.9039 65.6609 73.2751 65.9576 72.709C66.2542 72.143 66.6819 71.6561 67.2051 71.2891C70.758 68.7737 73.716 65.5099 75.8709 61.7276C78.0258 57.9452 79.3251 53.7364 79.6773 49.3975C80.0294 45.0586 79.4258 40.6953 77.909 36.615C76.3923 32.5347 73.9992 28.8366 70.8984 25.7812ZM66.041 69.6465C65.2559 70.2 64.6146 70.9332 64.1705 71.785C63.7264 72.6368 63.4925 73.5824 63.4883 74.543V79.3633H36.5234V74.5469C36.5167 73.5822 36.2796 72.6332 35.8318 71.7788C35.384 70.9243 34.7386 70.1893 33.9492 69.6348C30.2393 67.0024 27.2329 63.4988 25.1946 59.4321C23.1563 55.3654 22.1485 50.8601 22.2598 46.3125C22.6094 31.5957 34.875 19.4473 49.6035 19.2363C55.5285 19.1495 61.3258 20.961 66.1474 24.4057C70.969 27.8504 74.5617 32.7476 76.4001 38.3808C78.2385 44.0141 78.2261 50.0878 76.3646 55.7135C74.5031 61.3392 70.8903 66.2216 66.0547 69.6465H66.041Z" fill="#737373"/>
<path d="M70.2441 50.123C71.3183 48.9258 71.8887 47.084 70.9824 44.6914C69.2851 40.2148 65.6289 39.1016 63.8516 38.832C63.7864 38.0277 63.5214 37.2524 63.0808 36.5765C62.6401 35.9005 62.0377 35.3452 61.3281 34.9609C59.1914 33.7891 57.3828 34.1797 56.3808 34.5879C55.209 33.4004 53.6465 32.9551 51.8398 33.3516C51.1317 33.5108 50.4883 33.8805 49.9941 34.4121C49.4992 33.8805 48.8552 33.5108 48.1465 33.3516C46.3457 32.9609 44.7793 33.4004 43.6074 34.5879C42.6113 34.1797 40.8027 33.7891 38.6719 34.9609C37.9642 35.3454 37.3634 35.9001 36.9239 36.5749C36.4843 37.2498 36.2198 38.0235 36.1543 38.8262C34.3769 39.1016 30.7207 40.2148 29.0234 44.6855C28.1172 47.0781 28.6875 48.9199 29.7617 50.1172C28.4922 51.0352 27.291 52.8125 27.5039 55.8711C27.7715 59.7344 32.0664 60.7656 34.5586 60.7656H65.4473C67.9394 60.7656 72.2324 59.7344 72.5019 55.8711C72.7148 52.8184 71.5137 51.041 70.2441 50.123ZM29.5058 55.7363C29.2871 52.5996 30.8887 51.666 31.5762 51.4102C32.2783 51.7125 33.0344 51.8693 33.7988 51.8711C35.1914 51.8711 36.5098 51.3418 37.332 50.334C37.4155 50.2314 37.478 50.1134 37.5158 49.9866C37.5537 49.8599 37.5662 49.7269 37.5527 49.5954C37.5392 49.4638 37.4999 49.3361 37.4371 49.2197C37.3743 49.1034 37.2891 49.0005 37.1865 48.917C37.0839 48.8335 36.9659 48.771 36.8391 48.7332C36.7124 48.6953 36.5795 48.6828 36.4479 48.6963C36.3163 48.7098 36.1887 48.7491 36.0723 48.8119C35.9559 48.8748 35.853 48.9599 35.7695 49.0625C35.0176 49.9805 33.2832 50.123 31.9805 49.3711C31.1875 48.9141 29.9922 47.7891 30.8965 45.4043C32.1914 41.9844 34.9375 41.0762 36.3203 40.834C36.6417 41.9975 37.2856 43.0463 38.1777 43.8594C37.5918 44.5742 37.2012 45.6699 37.5469 47.2129C37.5976 47.4342 37.7217 47.6319 37.899 47.7737C38.0763 47.9156 38.2964 47.9933 38.5234 47.9941C38.5984 47.9944 38.6731 47.9859 38.7461 47.9688C39.0062 47.9096 39.2322 47.7497 39.3746 47.5242C39.517 47.2987 39.5642 47.0259 39.5058 46.7656C39.2754 45.7441 39.5859 45.2246 39.8769 44.9707C40.7513 45.3326 41.722 45.3897 42.6328 45.1328C43.3704 44.9119 44.0488 44.5274 44.6172 44.008C45.1857 43.4886 45.6296 42.8476 45.916 42.1328C46.0059 41.8816 45.9923 41.6049 45.8782 41.3637C45.7641 41.1225 45.5588 40.9366 45.3076 40.8467C45.0564 40.7568 44.7797 40.7704 44.5385 40.8845C44.2973 40.9986 44.1113 41.2038 44.0215 41.4551C43.8435 41.8666 43.579 42.235 43.2461 42.5353C42.9131 42.8355 42.5194 43.0607 42.0918 43.1953C41.5069 43.3529 40.8835 43.2728 40.3574 42.9727L40.3105 42.9473C40.1217 42.8416 39.9426 42.7193 39.7754 42.582C39.3226 42.2295 38.945 41.7899 38.6649 41.289C38.3848 40.7882 38.2079 40.2363 38.1445 39.666C38.1445 39.6504 38.1445 39.6367 38.1445 39.6211C38.1269 39.4216 38.1269 39.221 38.1445 39.0215C38.1766 38.5431 38.3298 38.0807 38.5899 37.6779C38.8499 37.275 39.2081 36.945 39.6308 36.7187C40.791 36.084 41.7793 36.1328 42.4336 36.2988C42.3116 36.5535 42.2027 36.8143 42.1074 37.0801C42.016 37.3308 42.0279 37.6076 42.1405 37.8495C42.2532 38.0914 42.4573 38.2787 42.708 38.3701C42.9587 38.4615 43.2355 38.4496 43.4774 38.337C43.7193 38.2244 43.9066 38.0202 43.998 37.7695C44.7402 35.7305 45.9512 34.9297 47.709 35.3164C48.0757 35.4048 48.4015 35.6151 48.6332 35.9127C48.8649 36.2104 48.9887 36.5779 48.9844 36.9551V51.1016C45.0137 52.2617 43.75 49.3164 43.6113 48.9531C43.5188 48.7027 43.3307 48.4992 43.0882 48.3875C42.8457 48.2758 42.5688 48.265 42.3183 48.3574C42.0679 48.4499 41.8644 48.6381 41.7527 48.8805C41.641 49.123 41.6302 49.3999 41.7226 49.6504C42.0278 50.3917 42.4727 51.0674 43.0332 51.6406C41.2754 52.5371 40.3476 54.3008 40.0683 55.3867C40.003 55.6441 40.0421 55.9169 40.1771 56.1456C40.3121 56.3743 40.5321 56.5403 40.789 56.6074C40.872 56.629 40.9573 56.6402 41.043 56.6406C41.2655 56.6412 41.482 56.5682 41.6586 56.4329C41.8353 56.2976 41.9622 56.1076 42.0195 55.8926C42.0508 55.7773 42.7851 53.1582 45.3398 53.0938C45.9551 53.2952 46.5987 53.3961 47.2461 53.3926C47.8342 53.3882 48.4199 53.3175 48.9922 53.1816V58.7578H34.5527C34.3555 58.7598 29.7129 58.7246 29.5058 55.7363ZM70.4941 55.7363C70.2851 58.7246 65.6445 58.7598 65.4473 58.7598H51.0058V53.1836C51.5774 53.3194 52.1625 53.3902 52.75 53.3945C53.3967 53.3982 54.0398 53.2973 54.6543 53.0957C57.2109 53.1699 57.9394 55.7695 57.9746 55.8926C58.0414 56.1516 58.2084 56.3734 58.4388 56.5093C58.6692 56.6452 58.9441 56.684 59.2031 56.6172C59.4621 56.5504 59.684 56.3834 59.8199 56.153C59.9557 55.9226 59.9945 55.6477 59.9277 55.3887C59.6465 54.3008 58.7461 52.5254 56.9726 51.6309C57.5283 51.0603 57.9699 50.3887 58.2734 49.6523C58.3651 49.4016 58.3534 49.1248 58.241 48.8827C58.1285 48.6405 57.9245 48.453 57.6738 48.3613C57.4231 48.2696 57.1462 48.2813 56.9041 48.3938C56.662 48.5062 56.4745 48.7102 56.3828 48.9609C55.9889 49.8671 55.2855 50.6037 54.3984 51.0391C53.459 51.4688 52.3223 51.4902 51.0117 51.1055V36.957C51.0073 36.5801 51.1308 36.2128 51.3621 35.9152C51.5934 35.6176 51.9188 35.4072 52.2851 35.3184C54.0547 34.9277 55.2656 35.7324 56.0078 37.7715C56.0992 38.0222 56.2865 38.2263 56.5284 38.339C56.7704 38.4516 57.0471 38.4635 57.2978 38.3721C57.5485 38.2806 57.7527 38.0934 57.8653 37.8514C57.9779 37.6095 57.9899 37.3327 57.8984 37.082C57.8031 36.8162 57.6943 36.5554 57.5723 36.3008C58.5234 36.0714 59.5265 36.2214 60.3691 36.7187C60.7899 36.9456 61.1462 37.2755 61.4048 37.6775C61.6633 38.0796 61.8157 38.5406 61.8476 39.0176C61.9668 40.3203 61.3574 41.6523 60.2168 42.5781C60.0533 42.7117 59.8789 42.8313 59.6953 42.9355L59.6308 42.9707C59.3711 43.1196 59.0845 43.2156 58.7875 43.2531C58.4905 43.2907 58.189 43.269 57.9004 43.1895C57.4729 43.055 57.0793 42.8302 56.7464 42.5303C56.4135 42.2304 56.1489 41.8623 55.9707 41.4512C55.9262 41.3268 55.8576 41.2124 55.7689 41.1145C55.6802 41.0166 55.5731 40.9371 55.4536 40.8806C55.3342 40.8241 55.2048 40.7917 55.0729 40.7852C54.9409 40.7787 54.809 40.7983 54.6846 40.8428C54.5602 40.8873 54.4457 40.9558 54.3478 41.0446C54.25 41.1333 54.1705 41.2404 54.114 41.3598C54.0575 41.4793 54.0251 41.6087 54.0186 41.7406C54.0121 41.8726 54.0317 42.0045 54.0762 42.1289C54.3627 42.8433 54.8065 43.4839 55.3745 44.0032C55.9426 44.5226 56.6203 44.9073 57.3574 45.1289C57.7313 45.2335 58.1176 45.2867 58.5058 45.2871C59.0589 45.2864 59.6064 45.1769 60.1172 44.9648C60.3906 45.209 60.7187 45.7285 60.4863 46.7617C60.428 47.022 60.4752 47.2948 60.6176 47.5203C60.76 47.7458 60.986 47.9057 61.2461 47.9648C61.3191 47.9818 61.3938 47.9903 61.4687 47.9902C61.6958 47.9894 61.9159 47.9117 62.0932 47.7698C62.2705 47.628 62.3946 47.4303 62.4453 47.209C62.793 45.666 62.3926 44.5703 61.8125 43.8555C62.7051 43.044 63.3498 41.9965 63.6719 40.834C65.0547 41.0742 67.8008 41.9844 69.0957 45.4043C70 47.7891 68.8047 48.9199 68.0117 49.3711C66.709 50.123 64.9746 49.9824 64.2226 49.0625C64.1392 48.9599 64.0363 48.8748 63.9199 48.8119C63.8035 48.7491 63.6759 48.7098 63.5443 48.6963C63.4127 48.6828 63.2798 48.6953 63.153 48.7332C63.0263 48.771 62.9082 48.8335 62.8057 48.917C62.7031 49.0005 62.6179 49.1034 62.5551 49.2197C62.4922 49.3361 62.4529 49.4638 62.4394 49.5954C62.4259 49.7269 62.4385 49.8599 62.4763 49.9866C62.5142 50.1134 62.5767 50.2314 62.6601 50.334C63.4824 51.3418 64.8086 51.8711 66.1933 51.8711C66.9578 51.8693 67.7139 51.7125 68.416 51.4102C69.1113 51.666 70.7129 52.5996 70.4941 55.7363Z" fill="#FFB912"/>
<path d="M64.4941 86.0508H35.5059C35.2391 86.0508 34.9832 86.1568 34.7946 86.3454C34.606 86.534 34.5 86.7899 34.5 87.0566C34.5 87.3234 34.606 87.5793 34.7946 87.7679C34.9832 87.9565 35.2391 88.0625 35.5059 88.0625H64.4941C64.7609 88.0625 65.0168 87.9565 65.2054 87.7679C65.394 87.5793 65.5 87.3234 65.5 87.0566C65.5 86.7899 65.394 86.534 65.2054 86.3454C65.0168 86.1568 64.7609 86.0508 64.4941 86.0508Z" fill="#737373"/>
<path d="M64.4941 93.6719H35.5059C35.2391 93.6719 34.9832 93.7778 34.7946 93.9665C34.606 94.1551 34.5 94.411 34.5 94.6777C34.5 94.9445 34.606 95.2003 34.7946 95.389C34.9832 95.5776 35.2391 95.6836 35.5059 95.6836H64.4941C64.7609 95.6836 65.0168 95.5776 65.2054 95.389C65.394 95.2003 65.5 94.9445 65.5 94.6777C65.5 94.411 65.394 94.1551 65.2054 93.9665C65.0168 93.7778 64.7609 93.6719 64.4941 93.6719Z" fill="#737373"/>
<path d="M50 15.1445C50.2668 15.1445 50.5226 15.0386 50.7112 14.8499C50.8999 14.6613 51.0059 14.4054 51.0059 14.1387V5.32227C51.0059 5.0555 50.8999 4.79965 50.7112 4.61102C50.5226 4.42238 50.2668 4.31641 50 4.31641C49.7332 4.31641 49.4774 4.42238 49.2887 4.61102C49.1001 4.79965 48.9941 5.0555 48.9941 5.32227V14.1387C48.9941 14.2708 49.0202 14.4016 49.0707 14.5236C49.1213 14.6456 49.1953 14.7565 49.2887 14.8499C49.3822 14.9433 49.493 15.0174 49.6151 15.068C49.7371 15.1185 49.8679 15.1445 50 15.1445Z" fill="#737373"/>
<path d="M23.8691 21.5898C23.9645 21.6813 24.077 21.753 24.2001 21.801C24.3233 21.849 24.4547 21.8722 24.5868 21.8694C24.7189 21.8666 24.8492 21.8378 24.9702 21.7846C25.0912 21.7315 25.2005 21.655 25.2919 21.5596C25.3834 21.4642 25.4551 21.3517 25.5031 21.2285C25.5511 21.1054 25.5743 20.974 25.5715 20.8419C25.5687 20.7098 25.5399 20.5795 25.4867 20.4585C25.4335 20.3375 25.3571 20.2282 25.2617 20.1367L18.2304 13.4121C18.0366 13.2339 17.7806 13.1388 17.5175 13.1472C17.2543 13.1556 17.0049 13.2668 16.8229 13.4571C16.6408 13.6473 16.5406 13.9013 16.5438 14.1646C16.5469 14.4279 16.6532 14.6794 16.8398 14.8652L23.8691 21.5898Z" fill="#737373"/>
<path d="M12.8711 44.2891C12.8711 44.0218 12.765 43.7654 12.576 43.5764C12.387 43.3874 12.1306 43.2813 11.8633 43.2813H2.21879C2.08284 43.2753 1.94709 43.2969 1.81971 43.3448C1.69234 43.3927 1.57599 43.4659 1.47767 43.5599C1.37935 43.654 1.3011 43.767 1.24764 43.8922C1.19419 44.0173 1.16663 44.152 1.16663 44.2881C1.16663 44.4242 1.19419 44.5588 1.24764 44.684C1.3011 44.8091 1.37935 44.9221 1.47767 45.0162C1.57599 45.1103 1.69234 45.1835 1.81971 45.2314C1.94709 45.2793 2.08284 45.3009 2.21879 45.2949H11.8633C12.1303 45.2949 12.3863 45.189 12.5753 45.0004C12.7642 44.8119 12.8706 44.556 12.8711 44.2891Z" fill="#737373"/>
<path d="M19.4219 69.8613L11.2031 77.0352C11.1007 77.1211 11.0164 77.2266 10.9552 77.3455C10.894 77.4644 10.8572 77.5944 10.8468 77.7277C10.8364 77.861 10.8527 77.9951 10.8948 78.122C10.9368 78.2489 11.0037 78.3662 11.0917 78.467C11.1796 78.5678 11.2867 78.65 11.4068 78.7089C11.5268 78.7677 11.6574 78.8021 11.7909 78.8099C11.9244 78.8177 12.0581 78.7988 12.1842 78.7543C12.3103 78.7098 12.4263 78.6406 12.5254 78.5508L20.7441 71.3789C20.9454 71.2036 21.0687 70.9555 21.087 70.6892C21.1053 70.4229 21.0171 70.1602 20.8418 69.959C20.6664 69.7577 20.4183 69.6344 20.152 69.6161C19.8858 69.5978 19.6231 69.686 19.4219 69.8613Z" fill="#737373"/>
<path d="M75.4355 21.875C75.6946 21.8747 75.9436 21.7747 76.1308 21.5957L83.1523 14.8711C83.2508 14.7805 83.3302 14.6713 83.3859 14.5496C83.4416 14.428 83.4725 14.2965 83.4768 14.1628C83.4811 14.0291 83.4586 13.8959 83.4108 13.7709C83.3629 13.646 83.2906 13.5319 83.1982 13.4352C83.1057 13.3386 82.9948 13.2614 82.8721 13.2081C82.7494 13.1548 82.6173 13.1265 82.4835 13.1249C82.3498 13.1233 82.217 13.1484 82.0931 13.1987C81.9691 13.249 81.8565 13.3236 81.7617 13.418L74.7304 20.1426C74.5853 20.2815 74.4851 20.4608 74.4427 20.6572C74.4004 20.8537 74.4179 21.0583 74.4929 21.2447C74.5679 21.4311 74.6971 21.5908 74.8637 21.7031C75.0303 21.8155 75.2267 21.8753 75.4277 21.875H75.4355Z" fill="#737373"/>
<path d="M97.7813 43.2813H88.1368C88.0008 43.2753 87.8651 43.2969 87.7377 43.3448C87.6103 43.3927 87.494 43.4659 87.3956 43.5599C87.2973 43.654 87.2191 43.767 87.1656 43.8922C87.1122 44.0173 87.0846 44.152 87.0846 44.2881C87.0846 44.4242 87.1122 44.5588 87.1656 44.684C87.2191 44.8091 87.2973 44.9221 87.3956 45.0162C87.494 45.1103 87.6103 45.1835 87.7377 45.2314C87.8651 45.2793 88.0008 45.3009 88.1368 45.2949H97.7813C97.9172 45.3009 98.053 45.2793 98.1804 45.2314C98.3077 45.1835 98.4241 45.1103 98.5224 45.0162C98.6207 44.9221 98.699 44.8091 98.7524 44.684C98.8059 44.5588 98.8335 44.4242 98.8335 44.2881C98.8335 44.152 98.8059 44.0173 98.7524 43.8922C98.699 43.767 98.6207 43.654 98.5224 43.5599C98.4241 43.4659 98.3077 43.3927 98.1804 43.3448C98.053 43.2969 97.9172 43.2753 97.7813 43.2813Z" fill="#737373"/>
<path d="M88.7969 77.0352L80.5782 69.8613C80.4785 69.7745 80.3628 69.7082 80.2375 69.6661C80.1122 69.624 79.9799 69.607 79.848 69.6161C79.7161 69.6251 79.5874 69.6601 79.469 69.7189C79.3507 69.7778 79.2451 69.8593 79.1583 69.959C79.0714 70.0586 79.0051 70.1744 78.963 70.2997C78.9209 70.425 78.9039 70.5573 78.913 70.6892C78.9221 70.821 78.957 70.9498 79.0159 71.0681C79.0747 71.1865 79.1563 71.2921 79.2559 71.3789L87.4747 78.5508C87.5737 78.6406 87.6897 78.7098 87.8158 78.7543C87.9419 78.7988 88.0756 78.8177 88.2091 78.8099C88.3426 78.8021 88.4732 78.7677 88.5933 78.7089C88.7133 78.65 88.8205 78.5677 88.9084 78.467C88.9963 78.3662 89.0632 78.2489 89.1053 78.122C89.1473 77.995 89.1636 77.861 89.1533 77.7277C89.1429 77.5944 89.106 77.4644 89.0448 77.3455C88.9837 77.2266 88.8994 77.1211 88.7969 77.0352Z" fill="#737373"/>
</svg>
