<svg width="54" height="44" viewBox="0 0 54 44" fill="none" xmlns="http://www.w3.org/2000/svg">
<path d="M31.3719 16.6412C31.3719 14.4702 29.873 13.2717 27.2402 13.2717H22.3975V20.2661H26.4811C29.6327 20.2563 31.3719 18.9596 31.3719 16.6412ZM49.0036 15.3838C48.0907 12.3483 47.9562 8.62514 48.0619 5.74682C48.1676 2.75061 45.8808 0 42.806 0H11.2132C8.12883 0 5.8516 2.76044 5.9573 5.74682C6.05338 8.62514 5.92847 12.3483 5.01566 15.3838C4.09324 18.4291 2.54626 20.3545 0 20.6001V23.3999C2.53665 23.6455 4.09324 25.5709 5.01566 28.6162C5.92847 31.6517 6.06299 35.3749 5.9573 38.2532C5.8516 41.2494 8.13843 44 11.2132 44H42.7964C45.8808 44 48.158 41.2396 48.0523 38.2532C47.9562 35.3749 48.0811 31.6517 48.9939 28.6162C49.9164 25.5709 51.4633 23.6455 54 23.3999V20.6001C51.473 20.3545 49.9164 18.4291 49.0036 15.3838ZM28.1722 33.7048H18.7655V10.2952H28.1242C32.2847 10.2952 35.0135 12.5939 35.0135 16.1304C35.0135 18.6158 33.1783 20.8359 30.8338 21.219V21.3467C34.0238 21.7004 36.1665 23.9598 36.1665 27.0739C36.1665 31.2096 33.1591 33.7048 28.1722 33.7048ZM27.2114 23.0266H22.3975V30.7283H27.4228C30.7089 30.7283 32.448 29.3825 32.448 26.848C32.448 24.3233 30.6609 23.0266 27.2114 23.0266Z" fill="#7B09F8"/>
</svg>
