<svg width="64" height="64" viewBox="0 0 64 64" fill="none" xmlns="http://www.w3.org/2000/svg">
<path d="M64 32C64 49.6731 49.6731 64 32 64C14.3269 64 0 49.6731 0 32C0 14.3269 14.3269 0 32 0C49.6731 0 64 14.3269 64 32Z" fill="#737373"/>
<path d="M20.1591 44.4545C18.1231 44.4545 16.3617 43.9811 14.875 43.0341C13.3883 42.0777 12.2377 40.7566 11.4233 39.071C10.6184 37.3759 10.2159 35.4252 10.2159 33.2188C10.2159 31.0218 10.6184 29.071 11.4233 27.3665C12.2377 25.6525 13.3598 24.3125 14.7898 23.3466C16.2292 22.3712 17.8911 21.8835 19.7756 21.8835C20.9593 21.8835 22.1004 22.1013 23.1989 22.5369C24.2973 22.9631 25.2822 23.6212 26.1534 24.5114C27.0341 25.392 27.7301 26.5047 28.2415 27.8494C28.7528 29.1847 29.0085 30.7661 29.0085 32.5938V33.8438H11.9631V31.6136H26.4233C26.4233 30.2121 26.1392 28.9527 25.571 27.8352C25.0123 26.7083 24.2311 25.8182 23.2273 25.1648C22.233 24.5114 21.0824 24.1847 19.7756 24.1847C18.393 24.1847 17.1761 24.554 16.125 25.2926C15.0739 26.0312 14.25 27.0066 13.6534 28.2188C13.0663 29.4309 12.768 30.7566 12.7585 32.196V33.5312C12.7585 35.2642 13.0568 36.7794 13.6534 38.0767C14.2595 39.3646 15.1165 40.3636 16.2244 41.0739C17.3324 41.7841 18.6439 42.1392 20.1591 42.1392C21.1913 42.1392 22.0956 41.9782 22.8722 41.6562C23.6581 41.3343 24.3163 40.9034 24.8466 40.3636C25.3864 39.8144 25.7936 39.2131 26.0682 38.5597L28.4688 39.3409C28.1373 40.2595 27.5928 41.107 26.8352 41.8835C26.0871 42.66 25.1496 43.285 24.0227 43.7585C22.9053 44.2225 21.6174 44.4545 20.1591 44.4545ZM35.5568 22.1818L41.1818 31.4858L46.8068 22.1818H49.7472L42.7301 33.0909L49.7472 44H46.8068L41.1818 34.9943L35.5568 44H32.6307L39.5625 33.0909L32.6307 22.1818H35.5568Z" fill="white"/>
</svg>
