<svg width="50" height="50" viewBox="0 0 50 50" fill="none" xmlns="http://www.w3.org/2000/svg">
<g clip-path="url(#clip0_21_179)">
<path fill-rule="evenodd" clip-rule="evenodd" d="M28.9192 34.5873C33.7908 34.012 38.9722 32.2407 38.9722 23.8264C38.9722 21.4348 38.13 19.4857 36.7583 17.9798C36.9796 17.4046 37.6875 15.2343 36.4913 12.2232C36.4913 12.2232 34.7199 11.6473 30.5578 14.437C28.7864 13.9504 26.8381 13.6398 25.0225 13.6398C23.1618 13.6398 21.2128 13.9504 19.4856 14.437C15.2784 11.6473 13.5071 12.2232 13.5071 12.2232C12.3117 15.2343 13.0205 17.4046 13.2417 17.9798C11.8686 19.4856 11.0271 21.4348 11.0271 23.8264C11.0271 32.2407 16.2085 34.012 21.0801 34.5873C20.4605 35.1197 19.8847 36.1374 19.6634 37.5548C18.4229 38.0858 15.1899 39.1049 13.2417 35.7392C13.2417 35.7392 12.0898 33.6581 9.92021 33.5254C9.92021 33.5254 7.7499 33.4812 9.74316 34.8527C9.74316 34.8527 11.2041 35.518 12.179 38.0415C12.179 38.0415 13.5071 42.2494 19.6184 40.9204V44.6844C19.6184 45.2611 19.176 45.9248 18.069 45.7479C9.38857 42.8688 3.14453 34.6314 3.14453 24.9775C3.14453 12.887 12.9313 3.10039 25.0225 3.10039C37.0681 3.10039 46.8997 12.8871 46.8555 24.9775C46.8555 34.6314 40.6107 42.8246 31.9309 45.7479C30.8232 45.9691 30.3808 45.3055 30.3808 44.6844V38.6182C30.3809 36.5798 29.7156 35.2524 28.9192 34.5873ZM50 25.0225C50 11.2041 38.7952 0 25.0225 0C11.2041 0 0 11.2041 0 25.0225C0 38.7952 11.2041 50 25.0225 50C38.7952 50 50 38.7952 50 25.0225Z" fill="white"/>
</g>
<defs>
<clipPath id="clip0_21_179">
<rect width="50" height="50" fill="white"/>
</clipPath>
</defs>
</svg>
