<svg width="72" height="29" viewBox="0 0 72 29" fill="none" xmlns="http://www.w3.org/2000/svg">
<path d="M1.92857 0.357143H2.89286V1.32143H1.92857V0.357143ZM0.964286 0.357143H1.92857V1.32143H0.964286V0.357143ZM0.964286 1.32143H1.92857V2.28571H0.964286V1.32143ZM1.92857 1.32143H2.89286V2.28571H1.92857V1.32143ZM2.89286 1.32143H3.85714V2.28571H2.89286V1.32143ZM2.89286 0.357143H3.85714V1.32143H2.89286V0.357143ZM3.85714 0.357143H4.82143V1.32143H3.85714V0.357143ZM4.82143 0.357143H5.78571V1.32143H4.82143V0.357143ZM4.82143 1.32143H5.78571V2.28571H4.82143V1.32143ZM3.85714 1.32143H4.82143V2.28571H3.85714V1.32143ZM4.82143 2.28571H5.78571V3.25H4.82143V2.28571ZM5.78571 1.32143H6.75V2.28571H5.78571V1.32143ZM5.78571 2.28571H6.75V3.25H5.78571V2.28571ZM5.78571 7.10714H6.75V8.07143H5.78571V7.10714ZM5.78571 8.07143H6.75V9.03571H5.78571V8.07143ZM4.82143 8.07143H5.78571V9.03571H4.82143V8.07143ZM4.82143 7.10714H5.78571V8.07143H4.82143V7.10714ZM3.85714 8.07143H4.82143V9.03571H3.85714V8.07143ZM4.82143 9.03571H5.78571V10H4.82143V9.03571ZM3.85714 9.03571H4.82143V10H3.85714V9.03571ZM2.89286 9.03571H3.85714V10H2.89286V9.03571ZM2.89286 8.07143H3.85714V9.03571H2.89286V8.07143ZM1.92857 9.03571H2.89286V10H1.92857V9.03571ZM0.964286 9.03571H1.92857V10H0.964286V9.03571ZM0.964286 8.07143H1.92857V9.03571H0.964286V8.07143ZM1.92857 8.07143H2.89286V9.03571H1.92857V8.07143ZM1.92857 7.10714H2.89286V8.07143H1.92857V7.10714ZM0.964286 7.10714H1.92857V8.07143H0.964286V7.10714ZM0 8.07143H0.964286V9.03571H0V8.07143ZM0 7.10714H0.964286V8.07143H0V7.10714ZM0 6.14286H0.964286V7.10714H0V6.14286ZM0 5.17857H0.964286V6.14286H0V5.17857ZM0 4.21429H0.964286V5.17857H0V4.21429ZM0 3.25H0.964286V4.21429H0V3.25ZM0 2.28571H0.964286V3.25H0V2.28571ZM0.964286 2.28571H1.92857V3.25H0.964286V2.28571ZM0 1.32143H0.964286V2.28571H0V1.32143ZM1.92857 2.28571H2.89286V3.25H1.92857V2.28571ZM0.964286 3.25H1.92857V4.21429H0.964286V3.25ZM0.964286 4.21429H1.92857V5.17857H0.964286V4.21429ZM0.964286 5.17857H1.92857V6.14286H0.964286V5.17857ZM0.964286 6.14286H1.92857V7.10714H0.964286V6.14286ZM9.64537 2.28571H10.6097V3.25H9.64537V2.28571ZM8.68108 2.28571H9.64537V3.25H8.68108V2.28571ZM8.68108 3.25H9.64537V4.21429H8.68108V3.25ZM9.64537 3.25H10.6097V4.21429H9.64537V3.25ZM10.6097 2.28571H11.5739V3.25H10.6097V2.28571ZM11.5739 2.28571H12.5382V3.25H11.5739V2.28571ZM12.5382 2.28571H13.5025V3.25H12.5382V2.28571ZM12.5382 3.25H13.5025V4.21429H12.5382V3.25ZM11.5739 3.25H12.5382V4.21429H11.5739V3.25ZM12.5382 5.17857H13.5025V6.14286H12.5382V5.17857ZM13.5025 3.25H14.4668V4.21429H13.5025V3.25ZM13.5025 4.21429H14.4668V5.17857H13.5025V4.21429ZM13.5025 5.17857H14.4668V6.14286H13.5025V5.17857ZM13.5025 6.14286H14.4668V7.10714H13.5025V6.14286ZM13.5025 7.10714H14.4668V8.07143H13.5025V7.10714ZM13.5025 8.07143H14.4668V9.03571H13.5025V8.07143ZM12.5382 8.07143H13.5025V9.03571H12.5382V8.07143ZM12.5382 7.10714H13.5025V8.07143H12.5382V7.10714ZM12.5382 6.14286H13.5025V7.10714H12.5382V6.14286ZM12.5382 4.21429H13.5025V5.17857H12.5382V4.21429ZM11.5739 8.07143H12.5382V9.03571H11.5739V8.07143ZM12.5382 9.03571H13.5025V10H12.5382V9.03571ZM11.5739 9.03571H12.5382V10H11.5739V9.03571ZM10.6097 9.03571H11.5739V10H10.6097V9.03571ZM9.64537 9.03571H10.6097V10H9.64537V9.03571ZM8.68108 9.03571H9.64537V10H8.68108V9.03571ZM8.68108 8.07143H9.64537V9.03571H8.68108V8.07143ZM9.64537 8.07143H10.6097V9.03571H9.64537V8.07143ZM8.68108 7.10714H9.64537V8.07143H8.68108V7.10714ZM7.7168 8.07143H8.68108V9.03571H7.7168V8.07143ZM7.7168 7.10714H8.68108V8.07143H7.7168V7.10714ZM7.7168 6.14286H8.68108V7.10714H7.7168V6.14286ZM7.7168 5.17857H8.68108V6.14286H7.7168V5.17857ZM7.7168 4.21429H8.68108V5.17857H7.7168V4.21429ZM7.7168 3.25H8.68108V4.21429H7.7168V3.25ZM8.68108 4.21429H9.64537V5.17857H8.68108V4.21429ZM8.68108 5.17857H9.64537V6.14286H8.68108V5.17857ZM8.68108 6.14286H9.64537V7.10714H8.68108V6.14286ZM10.6097 8.07143H11.5739V9.03571H10.6097V8.07143ZM10.6097 3.25H11.5739V4.21429H10.6097V3.25ZM15.4336 3.25H16.3979V4.21429H15.4336V3.25ZM15.4336 2.28571H16.3979V3.25H15.4336V2.28571ZM16.3979 2.28571H17.3622V3.25H16.3979V2.28571ZM16.3979 3.25H17.3622V4.21429H16.3979V3.25ZM16.3979 4.21429H17.3622V5.17857H16.3979V4.21429ZM16.3979 5.17857H17.3622V6.14286H16.3979V5.17857ZM16.3979 6.14286H17.3622V7.10714H16.3979V6.14286ZM15.4336 6.14286H16.3979V7.10714H15.4336V6.14286ZM15.4336 5.17857H16.3979V6.14286H15.4336V5.17857ZM15.4336 4.21429H16.3979V5.17857H15.4336V4.21429ZM15.4336 7.10714H16.3979V8.07143H15.4336V7.10714ZM16.3979 7.10714H17.3622V8.07143H16.3979V7.10714ZM16.3979 8.07143H17.3622V9.03571H16.3979V8.07143ZM16.3979 9.03571H17.3622V10H16.3979V9.03571ZM15.4336 9.03571H16.3979V10H15.4336V9.03571ZM15.4336 8.07143H16.3979V9.03571H15.4336V8.07143ZM20.255 9.03571H21.2193V10H20.255V9.03571ZM21.2193 9.03571H22.1836V10H21.2193V9.03571ZM21.2193 8.07143H22.1836V9.03571H21.2193V8.07143ZM21.2193 7.10714H22.1836V8.07143H21.2193V7.10714ZM21.2193 6.14286H22.1836V7.10714H21.2193V6.14286ZM21.2193 5.17857H22.1836V6.14286H21.2193V5.17857ZM21.2193 4.21429H22.1836V5.17857H21.2193V4.21429ZM21.2193 3.25H22.1836V4.21429H21.2193V3.25ZM20.255 5.17857H21.2193V6.14286H20.255V5.17857ZM20.255 6.14286H21.2193V7.10714H20.255V6.14286ZM20.255 7.10714H21.2193V8.07143H20.255V7.10714ZM20.255 8.07143H21.2193V9.03571H20.255V8.07143ZM20.255 4.21429H21.2193V5.17857H20.255V4.21429ZM17.3622 3.25H18.3265V4.21429H17.3622V3.25ZM18.3265 3.25H19.2907V4.21429H18.3265V3.25ZM19.2907 3.25H20.255V4.21429H19.2907V3.25ZM19.2907 2.28571H20.255V3.25H19.2907V2.28571ZM20.255 2.28571H21.2193V3.25H20.255V2.28571ZM20.255 3.25H21.2193V4.21429H20.255V3.25ZM18.3265 2.28571H19.2907V3.25H18.3265V2.28571ZM27.0075 8.07143H27.9718V9.03571H27.0075V8.07143ZM27.0075 9.03571H27.9718V10H27.0075V9.03571ZM26.0432 9.03571H27.0075V10H26.0432V9.03571ZM26.0432 8.07143H27.0075V9.03571H26.0432V8.07143ZM25.079 9.03571H26.0432V10H25.079V9.03571ZM25.079 8.07143H26.0432V9.03571H25.079V8.07143ZM24.1147 8.07143H25.079V9.03571H24.1147V8.07143ZM24.1147 7.10714H25.079V8.07143H24.1147V7.10714ZM24.1147 6.14286H25.079V7.10714H24.1147V6.14286ZM24.1147 5.17857H25.079V6.14286H24.1147V5.17857ZM24.1147 4.21429H25.079V5.17857H24.1147V4.21429ZM24.1147 3.25H25.079V4.21429H24.1147V3.25ZM25.079 6.14286H26.0432V7.10714H25.079V6.14286ZM25.079 7.10714H26.0432V8.07143H25.079V7.10714ZM25.079 5.17857H26.0432V6.14286H25.079V5.17857ZM25.079 4.21429H26.0432V5.17857H25.079V4.21429ZM25.079 0.357143H26.0432V1.32143H25.079V0.357143ZM25.079 1.32143H26.0432V2.28571H25.079V1.32143ZM25.079 2.28571H26.0432V3.25H25.079V2.28571ZM25.079 3.25H26.0432V4.21429H25.079V3.25ZM24.1147 2.28571H25.079V3.25H24.1147V2.28571ZM23.1504 3.25H24.1147V4.21429H23.1504V3.25ZM26.0432 3.25H27.0075V4.21429H26.0432V3.25ZM27.0075 3.25H27.9718V4.21429H27.0075V3.25ZM24.1147 1.32143H25.079V2.28571H24.1147V1.32143ZM23.1504 4.21429H24.1147V5.17857H23.1504V4.21429ZM26.0432 4.21429H27.0075V5.17857H26.0432V4.21429ZM27.0075 4.21429H27.9718V5.17857H27.0075V4.21429ZM30.8622 2.28571H31.8265V3.25H30.8622V2.28571ZM29.8979 2.28571H30.8622V3.25H29.8979V2.28571ZM29.8979 3.25H30.8622V4.21429H29.8979V3.25ZM30.8622 3.25H31.8265V4.21429H30.8622V3.25ZM31.8265 2.28571H32.7907V3.25H31.8265V2.28571ZM32.7907 2.28571H33.755V3.25H32.7907V2.28571ZM33.755 2.28571H34.7193V3.25H33.755V2.28571ZM33.755 3.25H34.7193V4.21429H33.755V3.25ZM32.7907 3.25H33.755V4.21429H32.7907V3.25ZM34.7193 3.25H35.6836V4.21429H34.7193V3.25ZM34.7193 4.21429H35.6836V5.17857H34.7193V4.21429ZM34.7193 8.07143H35.6836V9.03571H34.7193V8.07143ZM33.755 8.07143H34.7193V9.03571H33.755V8.07143ZM33.755 4.21429H34.7193V5.17857H33.755V4.21429ZM32.7907 8.07143H33.755V9.03571H32.7907V8.07143ZM33.755 9.03571H34.7193V10H33.755V9.03571ZM32.7907 9.03571H33.755V10H32.7907V9.03571ZM31.8265 9.03571H32.7907V10H31.8265V9.03571ZM30.8622 9.03571H31.8265V10H30.8622V9.03571ZM29.8979 9.03571H30.8622V10H29.8979V9.03571ZM29.8979 8.07143H30.8622V9.03571H29.8979V8.07143ZM30.8622 8.07143H31.8265V9.03571H30.8622V8.07143ZM29.8979 7.10714H30.8622V8.07143H29.8979V7.10714ZM28.9336 8.07143H29.8979V9.03571H28.9336V8.07143ZM28.9336 7.10714H29.8979V8.07143H28.9336V7.10714ZM28.9336 6.14286H29.8979V7.10714H28.9336V6.14286ZM28.9336 5.17857H29.8979V6.14286H28.9336V5.17857ZM28.9336 4.21429H29.8979V5.17857H28.9336V4.21429ZM28.9336 3.25H29.8979V4.21429H28.9336V3.25ZM29.8979 4.21429H30.8622V5.17857H29.8979V4.21429ZM29.8979 5.17857H30.8622V6.14286H29.8979V5.17857ZM29.8979 6.14286H30.8622V7.10714H29.8979V6.14286ZM31.8265 8.07143H32.7907V9.03571H31.8265V8.07143ZM31.8265 3.25H32.7907V4.21429H31.8265V3.25ZM33.755 5.17857H34.7193V6.14286H33.755V5.17857ZM34.7193 5.17857H35.6836V6.14286H34.7193V5.17857ZM30.8622 6.14286H31.8265V7.10714H30.8622V6.14286ZM31.8265 6.14286H32.7907V7.10714H31.8265V6.14286ZM32.7907 6.14286H33.755V7.10714H32.7907V6.14286ZM33.755 6.14286H34.7193V7.10714H33.755V6.14286ZM34.7193 6.14286H35.6836V7.10714H34.7193V6.14286ZM32.7907 5.17857H33.755V6.14286H32.7907V5.17857ZM31.8265 5.17857H32.7907V6.14286H31.8265V5.17857ZM30.8622 5.17857H31.8265V6.14286H30.8622V5.17857ZM36.6504 8.07143H37.6147V9.03571H36.6504V8.07143ZM36.6504 7.10714H37.6147V8.07143H36.6504V7.10714ZM37.6147 7.10714H38.579V8.07143H37.6147V7.10714ZM37.6147 8.07143H38.579V9.03571H37.6147V8.07143ZM37.6147 6.14286H38.579V7.10714H37.6147V6.14286ZM38.579 6.14286H39.5432V7.10714H38.579V6.14286ZM40.5075 6.14286H41.4718V7.10714H40.5075V6.14286ZM41.4718 6.14286H42.4361V7.10714H41.4718V6.14286ZM41.4718 8.07143H42.4361V9.03571H41.4718V8.07143ZM42.4361 8.07143H43.4004V9.03571H42.4361V8.07143ZM42.4361 7.10714H43.4004V8.07143H42.4361V7.10714ZM38.579 5.17857H39.5432V6.14286H38.579V5.17857ZM39.5432 5.17857H40.5075V6.14286H39.5432V5.17857ZM40.5075 5.17857H41.4718V6.14286H40.5075V5.17857ZM40.5075 4.21429H41.4718V5.17857H40.5075V4.21429ZM41.4718 4.21429H42.4361V5.17857H41.4718V4.21429ZM41.4718 3.25H42.4361V4.21429H41.4718V3.25ZM41.4718 2.28571H42.4361V3.25H41.4718V2.28571ZM42.4361 2.28571H43.4004V3.25H42.4361V2.28571ZM42.4361 3.25H43.4004V4.21429H42.4361V3.25ZM38.579 4.21429H39.5432V5.17857H38.579V4.21429ZM37.6147 4.21429H38.579V5.17857H37.6147V4.21429ZM37.6147 3.25H38.579V4.21429H37.6147V3.25ZM37.6147 2.28571H38.579V3.25H37.6147V2.28571ZM36.6504 2.28571H37.6147V3.25H36.6504V2.28571ZM36.6504 3.25H37.6147V4.21429H36.6504V3.25ZM38.579 7.10714H39.5432V8.07143H38.579V7.10714ZM40.5075 7.10714H41.4718V8.07143H40.5075V7.10714ZM41.4718 7.10714H42.4361V8.07143H41.4718V7.10714ZM38.579 3.25H39.5432V4.21429H38.579V3.25ZM40.5075 3.25H41.4718V4.21429H40.5075V3.25ZM39.5432 4.21429H40.5075V5.17857H39.5432V4.21429ZM39.5432 6.14286H40.5075V7.10714H39.5432V6.14286ZM36.6504 9.03571H37.6147V10H36.6504V9.03571ZM37.6147 9.03571H38.579V10H37.6147V9.03571ZM41.4718 9.03571H42.4361V10H41.4718V9.03571ZM42.4361 9.03571H43.4004V10H42.4361V9.03571ZM48.2243 8.07143H49.1886V9.03571H48.2243V8.07143ZM48.2243 9.03571H49.1886V10H48.2243V9.03571ZM47.26 9.03571H48.2243V10H47.26V9.03571ZM47.26 8.07143H48.2243V9.03571H47.26V8.07143ZM46.2958 9.03571H47.26V10H46.2958V9.03571ZM46.2958 8.07143H47.26V9.03571H46.2958V8.07143ZM45.3315 8.07143H46.2958V9.03571H45.3315V8.07143ZM45.3315 7.10714H46.2958V8.07143H45.3315V7.10714ZM45.3315 6.14286H46.2958V7.10714H45.3315V6.14286ZM45.3315 5.17857H46.2958V6.14286H45.3315V5.17857ZM45.3315 4.21429H46.2958V5.17857H45.3315V4.21429ZM45.3315 3.25H46.2958V4.21429H45.3315V3.25ZM46.2958 6.14286H47.26V7.10714H46.2958V6.14286ZM46.2958 7.10714H47.26V8.07143H46.2958V7.10714ZM46.2958 5.17857H47.26V6.14286H46.2958V5.17857ZM46.2958 4.21429H47.26V5.17857H46.2958V4.21429ZM46.2958 0.357143H47.26V1.32143H46.2958V0.357143ZM46.2958 1.32143H47.26V2.28571H46.2958V1.32143ZM46.2958 2.28571H47.26V3.25H46.2958V2.28571ZM46.2958 3.25H47.26V4.21429H46.2958V3.25ZM45.3315 2.28571H46.2958V3.25H45.3315V2.28571ZM44.3672 3.25H45.3315V4.21429H44.3672V3.25ZM47.26 3.25H48.2243V4.21429H47.26V3.25ZM48.2243 3.25H49.1886V4.21429H48.2243V3.25ZM45.3315 1.32143H46.2958V2.28571H45.3315V1.32143ZM44.3672 4.21429H45.3315V5.17857H44.3672V4.21429ZM47.26 4.21429H48.2243V5.17857H47.26V4.21429ZM48.2243 4.21429H49.1886V5.17857H48.2243V4.21429ZM55.9286 1.32143H56.8929V2.28571H55.9286V1.32143ZM56.8929 1.32143H57.8571V2.28571H56.8929V1.32143ZM56.8929 0.357143H57.8571V1.32143H56.8929V0.357143ZM57.8571 1.32143H58.8214V2.28571H57.8571V1.32143ZM57.8571 2.28571H58.8214V3.25H57.8571V2.28571ZM58.8214 2.28571H59.7857V3.25H58.8214V2.28571ZM56.8929 2.28571H57.8571V3.25H56.8929V2.28571ZM55.9286 2.28571H56.8929V3.25H55.9286V2.28571ZM54.9643 2.28571H55.9286V3.25H54.9643V2.28571ZM54.9643 3.25H55.9286V4.21429H54.9643V3.25ZM54 3.25H54.9643V4.21429H54V3.25ZM55.9286 3.25H56.8929V4.21429H55.9286V3.25ZM54.9643 4.21429H55.9286V5.17857H54.9643V4.21429ZM54.9643 5.17857H55.9286V6.14286H54.9643V5.17857ZM54.9643 6.14286H55.9286V7.10714H54.9643V6.14286ZM55.9286 6.14286H56.8929V7.10714H55.9286V6.14286ZM56.8929 6.14286H57.8571V7.10714H56.8929V6.14286ZM57.8571 6.14286H58.8214V7.10714H57.8571V6.14286ZM58.8214 6.14286H59.7857V7.10714H58.8214V6.14286ZM59.7857 6.14286H60.75V7.10714H59.7857V6.14286ZM59.7857 5.17857H60.75V6.14286H59.7857V5.17857ZM59.7857 4.21429H60.75V5.17857H59.7857V4.21429ZM59.7857 3.25H60.75V4.21429H59.7857V3.25ZM58.8214 3.25H59.7857V4.21429H58.8214V3.25ZM57.8571 3.25H58.8214V4.21429H57.8571V3.25ZM58.8214 4.21429H59.7857V5.17857H58.8214V4.21429ZM58.8214 5.17857H59.7857V6.14286H58.8214V5.17857ZM58.8214 7.10714H59.7857V8.07143H58.8214V7.10714ZM59.7857 7.10714H60.75V8.07143H59.7857V7.10714ZM59.7857 8.07143H60.75V9.03571H59.7857V8.07143ZM59.7857 9.03571H60.75V10H59.7857V9.03571ZM58.8214 9.03571H59.7857V10H58.8214V9.03571ZM58.8214 8.07143H59.7857V9.03571H58.8214V8.07143ZM57.8571 7.10714H58.8214V8.07143H57.8571V7.10714ZM56.8929 7.10714H57.8571V8.07143H56.8929V7.10714ZM55.9286 7.10714H56.8929V8.07143H55.9286V7.10714ZM54.9643 7.10714H55.9286V8.07143H54.9643V7.10714ZM54.9643 8.07143H55.9286V9.03571H54.9643V8.07143ZM54.9643 9.03571H55.9286V10H54.9643V9.03571ZM54 9.03571H54.9643V10H54V9.03571ZM54 8.07143H54.9643V9.03571H54V8.07143ZM54 7.10714H54.9643V8.07143H54V7.10714ZM54 6.14286H54.9643V7.10714H54V6.14286ZM54 5.17857H54.9643V6.14286H54V5.17857ZM54 4.21429H54.9643V5.17857H54V4.21429ZM61.7168 0.357143H62.6811V1.32143H61.7168V0.357143ZM62.6811 0.357143H63.6454V1.32143H62.6811V0.357143ZM63.6454 0.357143H64.6097V1.32143H63.6454V0.357143ZM64.6097 0.357143H65.5739V1.32143H64.6097V0.357143ZM65.5739 0.357143H66.5382V1.32143H65.5739V0.357143ZM66.5382 0.357143H67.5025V1.32143H66.5382V0.357143ZM66.5382 1.32143H67.5025V2.28571H66.5382V1.32143ZM65.5739 1.32143H66.5382V2.28571H65.5739V1.32143ZM64.6097 1.32143H65.5739V2.28571H64.6097V1.32143ZM63.6454 1.32143H64.6097V2.28571H63.6454V1.32143ZM62.6811 1.32143H63.6454V2.28571H62.6811V1.32143ZM61.7168 1.32143H62.6811V2.28571H61.7168V1.32143ZM67.5025 1.32143H68.4668V2.28571H67.5025V1.32143ZM66.5382 2.28571H67.5025V3.25H66.5382V2.28571ZM67.5025 2.28571H68.4668V3.25H67.5025V2.28571ZM67.5025 3.25H68.4668V4.21429H67.5025V3.25ZM67.5025 4.21429H68.4668V5.17857H67.5025V4.21429ZM66.5382 4.21429H67.5025V5.17857H66.5382V4.21429ZM66.5382 3.25H67.5025V4.21429H66.5382V3.25ZM66.5382 5.17857H67.5025V6.14286H66.5382V5.17857ZM66.5382 6.14286H67.5025V7.10714H66.5382V6.14286ZM65.5739 6.14286H66.5382V7.10714H65.5739V6.14286ZM65.5739 5.17857H66.5382V6.14286H65.5739V5.17857ZM64.6097 5.17857H65.5739V6.14286H64.6097V5.17857ZM64.6097 6.14286H65.5739V7.10714H64.6097V6.14286ZM63.6454 6.14286H64.6097V7.10714H63.6454V6.14286ZM63.6454 5.17857H64.6097V6.14286H63.6454V5.17857ZM62.6811 5.17857H63.6454V6.14286H62.6811V5.17857ZM61.7168 5.17857H62.6811V6.14286H61.7168V5.17857ZM61.7168 6.14286H62.6811V7.10714H61.7168V6.14286ZM62.6811 6.14286H63.6454V7.10714H62.6811V6.14286ZM61.7168 2.28571H62.6811V3.25H61.7168V2.28571ZM62.6811 2.28571H63.6454V3.25H62.6811V2.28571ZM62.6811 3.25H63.6454V4.21429H62.6811V3.25ZM62.6811 4.21429H63.6454V5.17857H62.6811V4.21429ZM61.7168 3.25H62.6811V4.21429H61.7168V3.25ZM61.7168 4.21429H62.6811V5.17857H61.7168V4.21429ZM61.7168 7.10714H62.6811V8.07143H61.7168V7.10714ZM62.6811 7.10714H63.6454V8.07143H62.6811V7.10714ZM62.6811 8.07143H63.6454V9.03571H62.6811V8.07143ZM62.6811 9.03571H63.6454V10H62.6811V9.03571ZM61.7168 9.03571H62.6811V10H61.7168V9.03571ZM61.7168 8.07143H62.6811V9.03571H61.7168V8.07143ZM67.5025 5.17857H68.4668V6.14286H67.5025V5.17857ZM69.4336 9.03571H70.3979V10H69.4336V9.03571ZM70.3979 9.03571H71.3622V10H70.3979V9.03571ZM70.3979 8.07143H71.3622V9.03571H70.3979V8.07143ZM70.3979 7.10714H71.3622V8.07143H70.3979V7.10714ZM70.3979 6.14286H71.3622V7.10714H70.3979V6.14286ZM70.3979 5.17857H71.3622V6.14286H70.3979V5.17857ZM70.3979 4.21429H71.3622V5.17857H70.3979V4.21429ZM69.4336 4.21429H70.3979V5.17857H69.4336V4.21429ZM69.4336 5.17857H70.3979V6.14286H69.4336V5.17857ZM69.4336 6.14286H70.3979V7.10714H69.4336V6.14286ZM69.4336 7.10714H70.3979V8.07143H69.4336V7.10714ZM69.4336 8.07143H70.3979V9.03571H69.4336V8.07143ZM69.4336 3.25H70.3979V4.21429H69.4336V3.25ZM70.3979 3.25H71.3622V4.21429H70.3979V3.25ZM70.3979 2.28571H71.3622V3.25H70.3979V2.28571ZM70.3979 1.32143H71.3622V2.28571H70.3979V1.32143ZM70.3979 0.357143H71.3622V1.32143H70.3979V0.357143ZM69.4336 0.357143H70.3979V1.32143H69.4336V0.357143ZM69.4336 1.32143H70.3979V2.28571H69.4336V1.32143ZM69.4336 2.28571H70.3979V3.25H69.4336V2.28571ZM0.964286 28.0357H1.92857V29H0.964286V28.0357ZM1.92857 28.0357H2.89286V29H1.92857V28.0357ZM2.89286 28.0357H3.85714V29H2.89286V28.0357ZM3.85714 28.0357H4.82143V29H3.85714V28.0357ZM3.85714 27.0714H4.82143V28.0357H3.85714V27.0714ZM4.82143 27.0714H5.78571V28.0357H4.82143V27.0714ZM4.82143 28.0357H5.78571V29H4.82143V28.0357ZM5.78571 27.0714H6.75V28.0357H5.78571V27.0714ZM6.75 27.0714H7.71429V28.0357H6.75V27.0714ZM7.71429 28.0357H8.67857V29H7.71429V28.0357ZM8.67857 28.0357H9.64286V29H8.67857V28.0357ZM7.71429 27.0714H8.67857V28.0357H7.71429V27.0714ZM6.75 26.1071H7.71429V27.0714H6.75V26.1071ZM6.75 25.1429H7.71429V26.1071H6.75V25.1429ZM7.71429 24.1786H8.67857V25.1429H7.71429V24.1786ZM6.75 24.1786H7.71429V25.1429H6.75V24.1786ZM5.78571 25.1429H6.75V26.1071H5.78571V25.1429ZM5.78571 26.1071H6.75V27.0714H5.78571V26.1071ZM4.82143 26.1071H5.78571V27.0714H4.82143V26.1071ZM4.82143 25.1429H5.78571V26.1071H4.82143V25.1429ZM3.85714 25.1429H4.82143V26.1071H3.85714V25.1429ZM3.85714 24.1786H4.82143V25.1429H3.85714V24.1786ZM0 20.3214H0.964286V21.2857H0V20.3214ZM0.964286 20.3214H1.92857V21.2857H0.964286V20.3214ZM0.964286 19.3571H1.92857V20.3214H0.964286V19.3571ZM1.92857 19.3571H2.89286V20.3214H1.92857V19.3571ZM2.89286 19.3571H3.85714V20.3214H2.89286V19.3571ZM3.85714 19.3571H4.82143V20.3214H3.85714V19.3571ZM3.85714 20.3214H4.82143V21.2857H3.85714V20.3214ZM4.82143 20.3214H5.78571V21.2857H4.82143V20.3214ZM4.82143 21.2857H5.78571V22.25H4.82143V21.2857ZM4.82143 22.25H5.78571V23.2143H4.82143V22.25ZM3.85714 22.25H4.82143V23.2143H3.85714V22.25ZM3.85714 21.2857H4.82143V22.25H3.85714V21.2857ZM0.964286 21.2857H1.92857V22.25H0.964286V21.2857ZM0 21.2857H0.964286V22.25H0V21.2857ZM0.964286 22.25H1.92857V23.2143H0.964286V22.25ZM0.964286 23.2143H1.92857V24.1786H0.964286V23.2143ZM0.964286 24.1786H1.92857V25.1429H0.964286V24.1786ZM0 24.1786H0.964286V25.1429H0V24.1786ZM0 25.1429H0.964286V26.1071H0V25.1429ZM0 26.1071H0.964286V27.0714H0V26.1071ZM0 27.0714H0.964286V28.0357H0V27.0714ZM0.964286 27.0714H1.92857V28.0357H0.964286V27.0714ZM0.964286 26.1071H1.92857V27.0714H0.964286V26.1071ZM1.92857 27.0714H2.89286V28.0357H1.92857V27.0714ZM2.89286 27.0714H3.85714V28.0357H2.89286V27.0714ZM3.85714 23.2143H4.82143V24.1786H3.85714V23.2143ZM2.89286 23.2143H3.85714V24.1786H2.89286V23.2143ZM1.92857 23.2143H2.89286V24.1786H1.92857V23.2143ZM1.92857 24.1786H2.89286V25.1429H1.92857V24.1786ZM2.89286 24.1786H3.85714V25.1429H2.89286V24.1786ZM6.75 28.0357H7.71429V29H6.75V28.0357ZM7.71429 25.1429H8.67857V26.1071H7.71429V25.1429ZM4.82143 24.1786H5.78571V25.1429H4.82143V24.1786ZM0 22.25H0.964286V23.2143H0V22.25ZM0.964286 25.1429H1.92857V26.1071H0.964286V25.1429ZM1.92857 20.3214H2.89286V21.2857H1.92857V20.3214ZM2.89286 20.3214H3.85714V21.2857H2.89286V20.3214ZM14.4492 19.3571H15.4135V20.3214H14.4492V19.3571ZM15.4135 19.3571H16.3778V20.3214H15.4135V19.3571ZM15.4135 20.3214H16.3778V21.2857H15.4135V20.3214ZM15.4135 21.2857H16.3778V22.25H15.4135V21.2857ZM15.4135 22.25H16.3778V23.2143H15.4135V22.25ZM14.4492 21.2857H15.4135V22.25H14.4492V21.2857ZM14.4492 20.3214H15.4135V21.2857H14.4492V20.3214ZM14.4492 22.25H15.4135V23.2143H14.4492V22.25ZM14.4492 23.2143H15.4135V24.1786H14.4492V23.2143ZM14.4492 25.1429H15.4135V26.1071H14.4492V25.1429ZM14.4492 24.1786H15.4135V25.1429H14.4492V24.1786ZM15.4135 23.2143H16.3778V24.1786H15.4135V23.2143ZM15.4135 24.1786H16.3778V25.1429H15.4135V24.1786ZM15.4135 25.1429H16.3778V26.1071H15.4135V25.1429ZM15.4135 26.1071H16.3778V27.0714H15.4135V26.1071ZM14.4492 26.1071H15.4135V27.0714H14.4492V26.1071ZM14.4492 28.0357H15.4135V29H14.4492V28.0357ZM15.4135 28.0357H16.3778V29H15.4135V28.0357ZM15.4135 27.0714H16.3778V28.0357H15.4135V27.0714ZM14.4492 27.0714H15.4135V28.0357H14.4492V27.0714ZM20.2349 28.0357H21.1992V29H20.2349V28.0357ZM20.2349 27.0714H21.1992V28.0357H20.2349V27.0714ZM20.2349 26.1071H21.1992V27.0714H20.2349V26.1071ZM20.2349 25.1429H21.1992V26.1071H20.2349V25.1429ZM20.2349 24.1786H21.1992V25.1429H20.2349V24.1786ZM20.2349 23.2143H21.1992V24.1786H20.2349V23.2143ZM20.2349 19.3571H21.1992V20.3214H20.2349V19.3571ZM19.2706 19.3571H20.2349V20.3214H19.2706V19.3571ZM19.2706 20.3214H20.2349V21.2857H19.2706V20.3214ZM19.2706 21.2857H20.2349V22.25H19.2706V21.2857ZM19.2706 22.25H20.2349V23.2143H19.2706V22.25ZM20.2349 22.25H21.1992V23.2143H20.2349V22.25ZM20.2349 21.2857H21.1992V22.25H20.2349V21.2857ZM20.2349 20.3214H21.1992V21.2857H20.2349V20.3214ZM19.2706 23.2143H20.2349V24.1786H19.2706V23.2143ZM19.2706 27.0714H20.2349V28.0357H19.2706V27.0714ZM19.2706 26.1071H20.2349V27.0714H19.2706V26.1071ZM19.2706 25.1429H20.2349V26.1071H19.2706V25.1429ZM19.2706 24.1786H20.2349V25.1429H19.2706V24.1786ZM19.2706 28.0357H20.2349V29H19.2706V28.0357ZM18.3064 23.2143H19.2706V24.1786H18.3064V23.2143ZM17.3421 23.2143H18.3064V24.1786H17.3421V23.2143ZM16.3778 23.2143H17.3421V24.1786H16.3778V23.2143ZM16.3778 24.1786H17.3421V25.1429H16.3778V24.1786ZM17.3421 24.1786H18.3064V25.1429H17.3421V24.1786ZM18.3064 24.1786H19.2706V25.1429H18.3064V24.1786ZM24.0946 21.2857H25.0589V22.25H24.0946V21.2857ZM23.1303 21.2857H24.0946V22.25H23.1303V21.2857ZM23.1303 22.25H24.0946V23.2143H23.1303V22.25ZM24.0946 22.25H25.0589V23.2143H24.0946V22.25ZM25.0589 21.2857H26.0232V22.25H25.0589V21.2857ZM26.0232 21.2857H26.9874V22.25H26.0232V21.2857ZM26.9874 21.2857H27.9517V22.25H26.9874V21.2857ZM26.9874 22.25H27.9517V23.2143H26.9874V22.25ZM26.0232 22.25H26.9874V23.2143H26.0232V22.25ZM26.9874 24.1786H27.9517V25.1429H26.9874V24.1786ZM27.9517 22.25H28.916V23.2143H27.9517V22.25ZM27.9517 23.2143H28.916V24.1786H27.9517V23.2143ZM27.9517 24.1786H28.916V25.1429H27.9517V24.1786ZM27.9517 25.1429H28.916V26.1071H27.9517V25.1429ZM27.9517 26.1071H28.916V27.0714H27.9517V26.1071ZM27.9517 27.0714H28.916V28.0357H27.9517V27.0714ZM26.9874 27.0714H27.9517V28.0357H26.9874V27.0714ZM26.9874 26.1071H27.9517V27.0714H26.9874V26.1071ZM26.9874 25.1429H27.9517V26.1071H26.9874V25.1429ZM26.9874 23.2143H27.9517V24.1786H26.9874V23.2143ZM26.0232 27.0714H26.9874V28.0357H26.0232V27.0714ZM26.9874 28.0357H27.9517V29H26.9874V28.0357ZM26.0232 28.0357H26.9874V29H26.0232V28.0357ZM25.0589 28.0357H26.0232V29H25.0589V28.0357ZM24.0946 28.0357H25.0589V29H24.0946V28.0357ZM23.1303 28.0357H24.0946V29H23.1303V28.0357ZM23.1303 27.0714H24.0946V28.0357H23.1303V27.0714ZM24.0946 27.0714H25.0589V28.0357H24.0946V27.0714ZM23.1303 26.1071H24.0946V27.0714H23.1303V26.1071ZM22.166 27.0714H23.1303V28.0357H22.166V27.0714ZM22.166 26.1071H23.1303V27.0714H22.166V26.1071ZM22.166 25.1429H23.1303V26.1071H22.166V25.1429ZM22.166 24.1786H23.1303V25.1429H22.166V24.1786ZM22.166 23.2143H23.1303V24.1786H22.166V23.2143ZM22.166 22.25H23.1303V23.2143H22.166V22.25ZM23.1303 23.2143H24.0946V24.1786H23.1303V23.2143ZM23.1303 24.1786H24.0946V25.1429H23.1303V24.1786ZM23.1303 25.1429H24.0946V26.1071H23.1303V25.1429ZM25.0589 27.0714H26.0232V28.0357H25.0589V27.0714ZM25.0589 22.25H26.0232V23.2143H25.0589V22.25ZM31.8114 21.2857H32.7757V22.25H31.8114V21.2857ZM30.8471 21.2857H31.8114V22.25H30.8471V21.2857ZM30.8471 22.25H31.8114V23.2143H30.8471V22.25ZM31.8114 22.25H32.7757V23.2143H31.8114V22.25ZM32.7757 21.2857H33.74V22.25H32.7757V21.2857ZM33.74 21.2857H34.7042V22.25H33.74V21.2857ZM34.7042 21.2857H35.6685V22.25H34.7042V21.2857ZM34.7042 22.25H35.6685V23.2143H34.7042V22.25ZM33.74 22.25H34.7042V23.2143H33.74V22.25ZM34.7042 24.1786H35.6685V25.1429H34.7042V24.1786ZM35.6685 22.25H36.6328V23.2143H35.6685V22.25ZM35.6685 23.2143H36.6328V24.1786H35.6685V23.2143ZM35.6685 24.1786H36.6328V25.1429H35.6685V24.1786ZM35.6685 25.1429H36.6328V26.1071H35.6685V25.1429ZM35.6685 26.1071H36.6328V27.0714H35.6685V26.1071ZM35.6685 27.0714H36.6328V28.0357H35.6685V27.0714ZM34.7042 27.0714H35.6685V28.0357H34.7042V27.0714ZM34.7042 26.1071H35.6685V27.0714H34.7042V26.1071ZM34.7042 25.1429H35.6685V26.1071H34.7042V25.1429ZM34.7042 23.2143H35.6685V24.1786H34.7042V23.2143ZM33.74 27.0714H34.7042V28.0357H33.74V27.0714ZM34.7042 28.0357H35.6685V29H34.7042V28.0357ZM33.74 28.0357H34.7042V29H33.74V28.0357ZM32.7757 28.0357H33.74V29H32.7757V28.0357ZM31.8114 28.0357H32.7757V29H31.8114V28.0357ZM30.8471 28.0357H31.8114V29H30.8471V28.0357ZM30.8471 27.0714H31.8114V28.0357H30.8471V27.0714ZM31.8114 27.0714H32.7757V28.0357H31.8114V27.0714ZM30.8471 26.1071H31.8114V27.0714H30.8471V26.1071ZM29.8828 27.0714H30.8471V28.0357H29.8828V27.0714ZM29.8828 26.1071H30.8471V27.0714H29.8828V26.1071ZM29.8828 25.1429H30.8471V26.1071H29.8828V25.1429ZM29.8828 24.1786H30.8471V25.1429H29.8828V24.1786ZM29.8828 23.2143H30.8471V24.1786H29.8828V23.2143ZM29.8828 22.25H30.8471V23.2143H29.8828V22.25ZM30.8471 23.2143H31.8114V24.1786H30.8471V23.2143ZM30.8471 24.1786H31.8114V25.1429H30.8471V24.1786ZM30.8471 25.1429H31.8114V26.1071H30.8471V25.1429ZM32.7757 27.0714H33.74V28.0357H32.7757V27.0714ZM32.7757 22.25H33.74V23.2143H32.7757V22.25ZM37.5996 19.3571H38.5639V20.3214H37.5996V19.3571ZM38.5639 19.3571H39.5282V20.3214H38.5639V19.3571ZM38.5639 20.3214H39.5282V21.2857H38.5639V20.3214ZM38.5639 21.2857H39.5282V22.25H38.5639V21.2857ZM38.5639 22.25H39.5282V23.2143H38.5639V22.25ZM37.5996 22.25H38.5639V23.2143H37.5996V22.25ZM37.5996 21.2857H38.5639V22.25H37.5996V21.2857ZM37.5996 20.3214H38.5639V21.2857H37.5996V20.3214ZM37.5996 23.2143H38.5639V24.1786H37.5996V23.2143ZM37.5996 24.1786H38.5639V25.1429H37.5996V24.1786ZM37.5996 25.1429H38.5639V26.1071H37.5996V25.1429ZM37.5996 26.1071H38.5639V27.0714H37.5996V26.1071ZM37.5996 27.0714H38.5639V28.0357H37.5996V27.0714ZM37.5996 28.0357H38.5639V29H37.5996V28.0357ZM38.5639 28.0357H39.5282V29H38.5639V28.0357ZM38.5639 27.0714H39.5282V28.0357H38.5639V27.0714ZM38.5639 26.1071H39.5282V27.0714H38.5639V26.1071ZM38.5639 25.1429H39.5282V26.1071H38.5639V25.1429ZM38.5639 24.1786H39.5282V25.1429H38.5639V24.1786ZM38.5639 23.2143H39.5282V24.1786H38.5639V23.2143ZM39.5282 24.1786H40.4925V25.1429H39.5282V24.1786ZM40.4925 24.1786H41.4568V25.1429H40.4925V24.1786ZM40.4925 23.2143H41.4568V24.1786H40.4925V23.2143ZM41.4568 23.2143H42.421V24.1786H41.4568V23.2143ZM41.4568 22.25H42.421V23.2143H41.4568V22.25ZM41.4568 21.2857H42.421V22.25H41.4568V21.2857ZM42.421 21.2857H43.3853V22.25H42.421V21.2857ZM42.421 22.25H43.3853V23.2143H42.421V22.25ZM40.4925 25.1429H41.4568V26.1071H40.4925V25.1429ZM41.4568 25.1429H42.421V26.1071H41.4568V25.1429ZM42.421 26.1071H43.3853V27.0714H42.421V26.1071ZM41.4568 26.1071H42.421V27.0714H41.4568V26.1071ZM41.4568 27.0714H42.421V28.0357H41.4568V27.0714ZM42.421 27.0714H43.3853V28.0357H42.421V27.0714ZM42.421 28.0357H43.3853V29H42.421V28.0357ZM41.4568 28.0357H42.421V29H41.4568V28.0357ZM44.3496 22.25H45.3139V23.2143H44.3496V22.25ZM45.3139 23.2143H46.2782V24.1786H45.3139V23.2143ZM44.3496 23.2143H45.3139V24.1786H44.3496V23.2143ZM44.3496 24.1786H45.3139V25.1429H44.3496V24.1786ZM45.3139 24.1786H46.2782V25.1429H45.3139V24.1786ZM45.3139 25.1429H46.2782V26.1071H45.3139V25.1429ZM46.2782 25.1429H47.2425V26.1071H46.2782V25.1429ZM47.2425 25.1429H48.2068V26.1071H47.2425V25.1429ZM48.2068 24.1786H49.171V25.1429H48.2068V24.1786ZM47.2425 24.1786H48.2068V25.1429H47.2425V24.1786ZM46.2782 24.1786H47.2425V25.1429H46.2782V24.1786ZM48.2068 25.1429H49.171V26.1071H48.2068V25.1429ZM49.171 25.1429H50.1353V26.1071H49.171V25.1429ZM49.171 26.1071H50.1353V27.0714H49.171V26.1071ZM48.2068 26.1071H49.171V27.0714H48.2068V26.1071ZM48.2068 27.0714H49.171V28.0357H48.2068V27.0714ZM49.171 27.0714H50.1353V28.0357H49.171V27.0714ZM48.2068 28.0357H49.171V29H48.2068V28.0357ZM47.2425 27.0714H48.2068V28.0357H47.2425V27.0714ZM46.2782 27.0714H47.2425V28.0357H46.2782V27.0714ZM45.3139 27.0714H46.2782V28.0357H45.3139V27.0714ZM44.3496 27.0714H45.3139V28.0357H44.3496V27.0714ZM45.3139 28.0357H46.2782V29H45.3139V28.0357ZM46.2782 28.0357H47.2425V29H46.2782V28.0357ZM47.2425 28.0357H48.2068V29H47.2425V28.0357ZM49.171 22.25H50.1353V23.2143H49.171V22.25ZM48.2068 22.25H49.171V23.2143H48.2068V22.25ZM48.2068 21.2857H49.171V22.25H48.2068V21.2857ZM47.2425 21.2857H48.2068V22.25H47.2425V21.2857ZM46.2782 21.2857H47.2425V22.25H46.2782V21.2857ZM45.3139 21.2857H46.2782V22.25H45.3139V21.2857ZM45.3139 22.25H46.2782V23.2143H45.3139V22.25ZM46.2782 22.25H47.2425V23.2143H46.2782V22.25ZM47.2425 22.25H48.2068V23.2143H47.2425V22.25Z" fill="white"/>
</svg>
