<svg width="64" height="64" viewBox="0 0 64 64" fill="none" xmlns="http://www.w3.org/2000/svg">
<path d="M32 64C49.6731 64 64 49.6731 64 32C64 14.3269 49.6731 0 32 0C14.3269 0 0 14.3269 0 32C0 49.6731 14.3269 64 32 64Z" fill="#F0DB4F"/>
<path d="M22.016 19.584H27.584V35.264C27.584 42.304 24.192 44.8 18.816 44.8C17.472 44.8 15.808 44.608 14.72 44.224L15.36 39.68C16.128 39.936 17.152 40.128 18.24 40.128C20.608 40.128 22.08 39.04 22.08 35.264L22.016 19.584Z" fill="#323330"/>
<path d="M32.5121 38.656C33.9841 39.424 36.3521 40.192 38.7201 40.192C41.2801 40.192 42.6241 39.104 42.6241 37.44C42.6241 35.904 41.4721 35.008 38.4641 33.984C34.3681 32.512 31.6161 30.208 31.6161 26.56C31.6161 22.4 35.2001 19.2 41.0241 19.2C43.8401 19.2 45.8881 19.776 47.3601 20.48L46.0801 24.96C45.1201 24.512 43.3281 23.808 40.9601 23.808C38.5281 23.808 37.3761 24.96 37.3761 26.176C37.3761 27.776 38.7201 28.48 41.9841 29.696C46.3361 31.296 48.3841 33.6 48.3841 37.12C48.3841 41.28 45.2481 44.8 38.4001 44.8C35.5841 44.8 32.7681 44.032 31.3601 43.264L32.5121 38.656Z" fill="#323330"/>
</svg>
