<svg width="167" height="63" viewBox="0 0 167 63" fill="none" xmlns="http://www.w3.org/2000/svg">
<path d="M56.707 59.3999V53.1584H57.9489V59.3999H56.707ZM54.2095 56.8977V55.6559H60.451V56.8977H54.2095ZM66.0265 60V52.9091H67.3515V54.0632H67.4392C67.5869 53.6723 67.8285 53.3677 68.164 53.1491C68.4994 52.9276 68.9011 52.8168 69.3689 52.8168C69.8428 52.8168 70.2398 52.9276 70.5599 53.1491C70.8831 53.3707 71.1216 53.6754 71.2755 54.0632H71.3493C71.5186 53.6847 71.7879 53.383 72.1572 53.1584C72.5265 52.9306 72.9666 52.8168 73.4775 52.8168C74.1208 52.8168 74.6455 53.0183 75.0518 53.4215C75.4611 53.8247 75.6657 54.4325 75.6657 55.245V60H74.2854V55.3743C74.2854 54.8942 74.1546 54.5464 73.893 54.331C73.6314 54.1155 73.319 54.0078 72.9559 54.0078C72.5065 54.0078 72.1572 54.1463 71.9079 54.4233C71.6586 54.6972 71.534 55.0496 71.534 55.4805V60H70.1583V55.2866C70.1583 54.9019 70.0383 54.5926 69.7982 54.3587C69.5582 54.1248 69.2458 54.0078 68.8611 54.0078C68.5995 54.0078 68.3579 54.0771 68.1363 54.2156C67.9178 54.351 67.7408 54.5402 67.6054 54.7834C67.473 55.0265 67.4069 55.3081 67.4069 55.6282V60H66.0265ZM80.5027 60.1431C79.8379 60.1431 79.2578 59.9908 78.7623 59.6861C78.2667 59.3814 77.882 58.9551 77.6081 58.4073C77.3342 57.8595 77.1973 57.2193 77.1973 56.4869C77.1973 55.7513 77.3342 55.1081 77.6081 54.5572C77.882 54.0063 78.2667 53.5785 78.7623 53.2738C79.2578 52.9691 79.8379 52.8168 80.5027 52.8168C81.1674 52.8168 81.7476 52.9691 82.2431 53.2738C82.7386 53.5785 83.1233 54.0063 83.3972 54.5572C83.6711 55.1081 83.8081 55.7513 83.8081 56.4869C83.8081 57.2193 83.6711 57.8595 83.3972 58.4073C83.1233 58.9551 82.7386 59.3814 82.2431 59.6861C81.7476 59.9908 81.1674 60.1431 80.5027 60.1431ZM80.5073 58.9844C80.9382 58.9844 81.2952 58.8705 81.5783 58.6428C81.8614 58.415 82.0707 58.1119 82.2061 57.7333C82.3446 57.3548 82.4139 56.9377 82.4139 56.4822C82.4139 56.0298 82.3446 55.6143 82.2061 55.2358C82.0707 54.8542 81.8614 54.5479 81.5783 54.3171C81.2952 54.0863 80.9382 53.9709 80.5073 53.9709C80.0733 53.9709 79.7132 54.0863 79.427 54.3171C79.1439 54.5479 78.9331 54.8542 78.7946 55.2358C78.6592 55.6143 78.5914 56.0298 78.5914 56.4822C78.5914 56.9377 78.6592 57.3548 78.7946 57.7333C78.9331 58.1119 79.1439 58.415 79.427 58.6428C79.7132 58.8705 80.0733 58.9844 80.5073 58.9844ZM86.7291 55.7898V60H85.3488V52.9091H86.6737V54.0632H86.7615C86.9246 53.6877 87.18 53.3861 87.5278 53.1584C87.8786 52.9306 88.3203 52.8168 88.8527 52.8168C89.3359 52.8168 89.7591 52.9183 90.1222 53.1214C90.4854 53.3215 90.767 53.62 90.9671 54.017C91.1671 54.4141 91.2671 54.9049 91.2671 55.4897V60H89.8868V55.6559C89.8868 55.1419 89.7529 54.7403 89.4852 54.451C89.2174 54.1586 88.8496 54.0124 88.3818 54.0124C88.0618 54.0124 87.7771 54.0817 87.5278 54.2202C87.2816 54.3587 87.0861 54.5618 86.9415 54.8295C86.7999 55.0942 86.7291 55.4143 86.7291 55.7898ZM96.0914 62.8068C95.5281 62.8068 95.0434 62.733 94.6372 62.5852C94.234 62.4375 93.9047 62.2421 93.6492 61.9989C93.3938 61.7558 93.203 61.4896 93.0768 61.2003L94.2632 60.7109C94.3463 60.8464 94.4571 60.9895 94.5956 61.1403C94.7372 61.2942 94.928 61.425 95.1681 61.5327C95.4112 61.6404 95.7236 61.6942 96.1052 61.6942C96.6284 61.6942 97.0608 61.5665 97.4024 61.3111C97.7441 61.0587 97.9149 60.6555 97.9149 60.1016V58.7074H97.8271C97.7441 58.8582 97.624 59.0259 97.4671 59.2106C97.3132 59.3952 97.1008 59.5553 96.83 59.6907C96.5592 59.8261 96.2068 59.8938 95.7728 59.8938C95.2127 59.8938 94.7079 59.763 94.2586 59.5014C93.8124 59.2367 93.4584 58.8474 93.1968 58.3335C92.9383 57.8164 92.809 57.1809 92.809 56.4268C92.809 55.6728 92.9368 55.0265 93.1922 54.4879C93.4507 53.9493 93.8047 53.5369 94.254 53.2507C94.7033 52.9614 95.2127 52.8168 95.782 52.8168C96.2222 52.8168 96.5776 52.8906 96.8485 53.0384C97.1193 53.183 97.3301 53.3523 97.4809 53.5462C97.6348 53.7401 97.7533 53.9109 97.8364 54.0586H97.9379V52.9091H99.2906V60.157C99.2906 60.7663 99.149 61.2665 98.8659 61.6573C98.5827 62.0482 98.1995 62.3375 97.7164 62.5252C97.2362 62.7129 96.6946 62.8068 96.0914 62.8068ZM96.0775 58.7489C96.4745 58.7489 96.81 58.6566 97.0839 58.4719C97.3609 58.2842 97.5702 58.0165 97.7117 57.6687C97.8564 57.3178 97.9287 56.8977 97.9287 56.4084C97.9287 55.9313 97.8579 55.5112 97.7164 55.1481C97.5748 54.7849 97.367 54.5018 97.0931 54.2987C96.8192 54.0924 96.4807 53.9893 96.0775 53.9893C95.662 53.9893 95.3158 54.0971 95.0388 54.3125C94.7618 54.5249 94.5525 54.8142 94.411 55.1804C94.2725 55.5466 94.2032 55.956 94.2032 56.4084C94.2032 56.8731 94.274 57.2809 94.4156 57.6317C94.5571 57.9826 94.7664 58.2565 95.0434 58.4535C95.3235 58.6504 95.6682 58.7489 96.0775 58.7489ZM104.129 60.1431C103.464 60.1431 102.884 59.9908 102.388 59.6861C101.893 59.3814 101.508 58.9551 101.234 58.4073C100.96 57.8595 100.823 57.2193 100.823 56.4869C100.823 55.7513 100.96 55.1081 101.234 54.5572C101.508 54.0063 101.893 53.5785 102.388 53.2738C102.884 52.9691 103.464 52.8168 104.129 52.8168C104.793 52.8168 105.374 52.9691 105.869 53.2738C106.365 53.5785 106.749 54.0063 107.023 54.5572C107.297 55.1081 107.434 55.7513 107.434 56.4869C107.434 57.2193 107.297 57.8595 107.023 58.4073C106.749 58.9551 106.365 59.3814 105.869 59.6861C105.374 59.9908 104.793 60.1431 104.129 60.1431ZM104.133 58.9844C104.564 58.9844 104.921 58.8705 105.204 58.6428C105.487 58.415 105.697 58.1119 105.832 57.7333C105.971 57.3548 106.04 56.9377 106.04 56.4822C106.04 56.0298 105.971 55.6143 105.832 55.2358C105.697 54.8542 105.487 54.5479 105.204 54.3171C104.921 54.0863 104.564 53.9709 104.133 53.9709C103.699 53.9709 103.339 54.0863 103.053 54.3171C102.77 54.5479 102.559 54.8542 102.421 55.2358C102.285 55.6143 102.217 56.0298 102.217 56.4822C102.217 56.9377 102.285 57.3548 102.421 57.7333C102.559 58.1119 102.77 58.415 103.053 58.6428C103.339 58.8705 103.699 58.9844 104.133 58.9844ZM111.962 60.1431C111.297 60.1431 110.717 59.9908 110.221 59.6861C109.726 59.3814 109.341 58.9551 109.067 58.4073C108.793 57.8595 108.656 57.2193 108.656 56.4869C108.656 55.7513 108.793 55.1081 109.067 54.5572C109.341 54.0063 109.726 53.5785 110.221 53.2738C110.717 52.9691 111.297 52.8168 111.962 52.8168C112.626 52.8168 113.207 52.9691 113.702 53.2738C114.198 53.5785 114.582 54.0063 114.856 54.5572C115.13 55.1081 115.267 55.7513 115.267 56.4869C115.267 57.2193 115.13 57.8595 114.856 58.4073C114.582 58.9551 114.198 59.3814 113.702 59.6861C113.207 59.9908 112.626 60.1431 111.962 60.1431ZM111.966 58.9844C112.397 58.9844 112.754 58.8705 113.037 58.6428C113.32 58.415 113.53 58.1119 113.665 57.7333C113.804 57.3548 113.873 56.9377 113.873 56.4822C113.873 56.0298 113.804 55.6143 113.665 55.2358C113.53 54.8542 113.32 54.5479 113.037 54.3171C112.754 54.0863 112.397 53.9709 111.966 53.9709C111.532 53.9709 111.172 54.0863 110.886 54.3171C110.603 54.5479 110.392 54.8542 110.254 55.2358C110.118 55.6143 110.05 56.0298 110.05 56.4822C110.05 56.9377 110.118 57.3548 110.254 57.7333C110.392 58.1119 110.603 58.415 110.886 58.6428C111.172 58.8705 111.532 58.9844 111.966 58.9844ZM122.121 54.6403L120.87 54.8619C120.818 54.7018 120.735 54.5495 120.621 54.4048C120.51 54.2602 120.359 54.1417 120.169 54.0494C119.978 53.957 119.739 53.9109 119.453 53.9109C119.062 53.9109 118.736 53.9986 118.474 54.174C118.213 54.3464 118.082 54.5695 118.082 54.8434C118.082 55.0804 118.17 55.2712 118.345 55.4158C118.521 55.5605 118.804 55.679 119.195 55.7713L120.321 56.0298C120.973 56.1806 121.46 56.413 121.78 56.7269C122.1 57.0408 122.26 57.4486 122.26 57.9503C122.26 58.375 122.137 58.7536 121.891 59.0859C121.647 59.4152 121.307 59.6738 120.87 59.8615C120.436 60.0492 119.933 60.1431 119.361 60.1431C118.567 60.1431 117.919 59.9738 117.417 59.6353C116.916 59.2937 116.608 58.8089 116.494 58.1811L117.828 57.978C117.911 58.3258 118.082 58.5889 118.34 58.7674C118.599 58.9428 118.936 59.0305 119.351 59.0305C119.804 59.0305 120.166 58.9367 120.436 58.7489C120.707 58.5581 120.843 58.3258 120.843 58.0518C120.843 57.8303 120.759 57.6441 120.593 57.4933C120.43 57.3424 120.179 57.2286 119.841 57.1516L118.641 56.8885C117.979 56.7377 117.489 56.4976 117.172 56.1683C116.859 55.839 116.702 55.422 116.702 54.9173C116.702 54.4987 116.819 54.1325 117.052 53.8185C117.286 53.5046 117.61 53.2599 118.022 53.0845C118.434 52.906 118.907 52.8168 119.439 52.8168C120.206 52.8168 120.809 52.983 121.249 53.3153C121.689 53.6446 121.98 54.0863 122.121 54.6403ZM126.834 60.1431C126.135 60.1431 125.533 59.9938 125.029 59.6953C124.527 59.3937 124.139 58.9705 123.865 58.4258C123.594 57.878 123.459 57.2363 123.459 56.5007C123.459 55.7744 123.594 55.1342 123.865 54.5803C124.139 54.0263 124.521 53.5939 125.01 53.283C125.503 52.9722 126.078 52.8168 126.737 52.8168C127.137 52.8168 127.525 52.8829 127.9 53.0153C128.276 53.1476 128.613 53.3554 128.911 53.6385C129.21 53.9216 129.445 54.2894 129.617 54.7418C129.79 55.1912 129.876 55.7375 129.876 56.3807V56.87H124.239V55.8359H128.523C128.523 55.4728 128.449 55.1512 128.302 54.8711C128.154 54.5879 127.946 54.3648 127.678 54.2017C127.414 54.0386 127.103 53.957 126.746 53.957C126.358 53.957 126.02 54.0524 125.73 54.2433C125.444 54.431 125.222 54.6772 125.066 54.9819C124.912 55.2835 124.835 55.6113 124.835 55.9652V56.7731C124.835 57.247 124.918 57.6502 125.084 57.9826C125.253 58.315 125.489 58.5689 125.79 58.7443C126.092 58.9167 126.444 59.0028 126.847 59.0028C127.109 59.0028 127.348 58.9659 127.563 58.892C127.778 58.8151 127.965 58.7012 128.122 58.5504C128.279 58.3996 128.399 58.2134 128.482 57.9918L129.788 58.2273C129.684 58.612 129.496 58.949 129.225 59.2383C128.957 59.5245 128.62 59.7476 128.214 59.9077C127.811 60.0646 127.351 60.1431 126.834 60.1431ZM143.171 55.2727C143.171 56.2822 142.987 57.1501 142.617 57.8764C142.248 58.5997 141.742 59.1567 141.099 59.5476C140.458 59.9354 139.731 60.1293 138.915 60.1293C138.096 60.1293 137.365 59.9354 136.722 59.5476C136.082 59.1567 135.577 58.5981 135.208 57.8718C134.839 57.1455 134.654 56.2791 134.654 55.2727C134.654 54.2633 134.839 53.3969 135.208 52.6737C135.577 51.9473 136.082 51.3903 136.722 51.0025C137.365 50.6116 138.096 50.4162 138.915 50.4162C139.731 50.4162 140.458 50.6116 141.099 51.0025C141.742 51.3903 142.248 51.9473 142.617 52.6737C142.987 53.3969 143.171 54.2633 143.171 55.2727ZM141.759 55.2727C141.759 54.5033 141.634 53.8555 141.385 53.3292C141.139 52.7998 140.8 52.3997 140.369 52.1289C139.941 51.855 139.457 51.718 138.915 51.718C138.37 51.718 137.884 51.855 137.456 52.1289C137.028 52.3997 136.69 52.7998 136.441 53.3292C136.194 53.8555 136.071 54.5033 136.071 55.2727C136.071 56.0421 136.194 56.6915 136.441 57.2209C136.69 57.7472 137.028 58.1473 137.456 58.4212C137.884 58.692 138.37 58.8274 138.915 58.8274C139.457 58.8274 139.941 58.692 140.369 58.4212C140.8 58.1473 141.139 57.7472 141.385 57.2209C141.634 56.6915 141.759 56.0421 141.759 55.2727ZM148.011 60H144.95V50.5455H148.108C149.034 50.5455 149.829 50.7347 150.494 51.1133C151.159 51.4888 151.668 52.0289 152.022 52.7337C152.379 53.4354 152.558 54.2771 152.558 55.2589C152.558 56.2437 152.378 57.0901 152.018 57.7979C151.661 58.5058 151.144 59.0505 150.467 59.4322C149.789 59.8107 148.971 60 148.011 60ZM146.376 58.7536H147.932C148.652 58.7536 149.251 58.6181 149.728 58.3473C150.205 58.0734 150.562 57.6779 150.799 57.1609C151.036 56.6407 151.154 56.0067 151.154 55.2589C151.154 54.5172 151.036 53.8878 150.799 53.3707C150.565 52.8537 150.216 52.4613 149.751 52.1935C149.286 51.9258 148.709 51.7919 148.02 51.7919H146.376V58.7536ZM154.332 50.5455H156.063L159.073 57.8949H159.184L162.194 50.5455H163.925V60H162.567V53.1584H162.48L159.691 59.9862H158.565L155.777 53.1538H155.689V60H154.332V50.5455Z" fill="#737373"/>
<path d="M155.67 19.8801C155.531 19.9151 155.358 20.2301 155.358 20.4401C155.323 21.6651 155.289 24.8851 155.289 27.0901C155.289 27.1601 155.393 27.2651 155.462 27.2651C155.912 27.3001 156.986 27.3351 157.922 27.3351C159.204 27.3351 159.966 27.1601 160.382 26.9851C161.456 26.4251 161.976 25.2351 161.976 23.9401C161.976 21.0001 159.932 19.8451 156.882 19.8451C156.709 19.7751 156.12 19.7751 155.67 19.8801ZM163.431 33.4952C163.431 30.4851 161.248 28.8051 157.264 28.8051C157.09 28.8051 155.808 28.7701 155.531 28.8401C155.427 28.8751 155.323 28.9451 155.323 29.0151C155.323 31.1851 155.289 34.6152 155.393 35.9452C155.462 36.5402 155.878 37.3452 156.397 37.5902C156.952 37.9052 158.164 37.9402 159.031 37.9402C161.352 37.9402 163.431 36.6102 163.431 33.4952ZM149.502 18.2001C149.814 18.2001 150.715 18.3051 153.036 18.3051C155.219 18.3051 156.986 18.2351 159.135 18.2351C161.768 18.2351 165.372 19.1801 165.372 23.1351C165.372 25.0951 164.02 26.6351 162.253 27.4051C162.149 27.4401 162.149 27.5101 162.253 27.5101C164.783 28.1401 167 29.7151 167 32.7252C167 35.6302 165.198 37.5202 162.565 38.6752C160.971 39.3752 158.996 39.6202 156.952 39.6202C155.427 39.6202 151.304 39.4452 148.982 39.5152C148.74 39.4102 149.19 38.3252 149.398 38.1502C149.953 38.1152 150.368 38.0802 150.923 37.9052C151.72 37.6952 151.824 37.4502 151.962 36.1902C152.032 35.1402 152.032 31.3601 152.032 28.6651C152.032 24.9901 152.066 22.4701 152.032 21.2801C151.997 20.3351 151.685 20.0201 150.992 19.8451C150.472 19.7401 149.641 19.6351 148.948 19.5301C148.809 19.3551 149.329 18.3051 149.502 18.2001ZM132.143 37.1352C132.87 37.7302 134.291 37.9402 135.538 37.9402C137.167 37.9402 138.795 37.6252 140.355 36.1902C141.949 34.7202 143.057 32.4802 143.057 28.8751C143.057 25.4451 141.775 22.6451 139.107 21.0001C137.617 20.0551 135.677 19.6701 133.459 19.6701C132.801 19.6701 132.177 19.7051 131.762 19.8801C131.658 19.9501 131.45 20.2301 131.45 20.3701C131.381 20.9651 131.381 25.6551 131.381 28.4201C131.381 31.2551 131.381 35.2102 131.45 35.6652C131.484 36.1202 131.692 36.8202 132.143 37.1352ZM125.282 18.2001C125.871 18.2001 128.054 18.3051 129.094 18.3051C130.999 18.3051 132.351 18.2001 135.92 18.2001C138.934 18.2001 141.463 19.0051 143.265 20.5801C145.448 22.5051 146.626 25.1301 146.626 28.3851C146.626 32.9702 144.547 35.6302 142.468 37.1352C140.389 38.6752 137.687 39.5852 133.806 39.5852C131.762 39.5852 128.227 39.5152 125.317 39.4802H125.282C125.144 39.2002 125.525 38.1502 125.767 38.1152C126.564 38.0102 126.772 38.0102 127.153 37.8352C127.777 37.5902 127.916 37.2402 127.985 36.1202C128.089 34.0202 128.054 31.5001 128.054 28.6301C128.054 26.6001 128.089 22.6101 128.02 21.3151C127.916 20.2651 127.465 19.9851 126.564 19.8101C126.114 19.7051 125.525 19.6001 124.659 19.4951C124.589 19.3201 125.144 18.3751 125.282 18.2001Z" fill="#8E714E"/>
<path d="M88.8308 38.3252C88.0685 38.2202 87.5488 38.1152 86.8558 37.8002C86.7519 37.7302 86.6133 37.4502 86.6133 37.3102C86.544 36.2602 86.544 33.2151 86.544 31.1501C86.544 29.5051 86.2668 28.0701 85.5738 27.0551C84.7768 25.9001 83.5988 25.2351 82.0742 25.2351C80.7575 25.2351 78.9558 26.1451 77.5005 27.4401C77.4658 27.4751 77.2233 27.6851 77.2579 27.3351C77.2579 26.9851 77.3272 26.3201 77.3619 25.8651C77.3965 25.4451 77.154 25.2351 77.154 25.2351C76.1838 25.7251 73.4812 26.3551 72.4763 26.4601C71.7487 26.6001 71.5754 27.3001 72.3377 27.5451H72.3724C73.1693 27.7901 73.7237 28.0701 74.1395 28.3501C74.4513 28.5951 74.4167 28.9451 74.4167 29.1901C74.4513 31.4651 74.4513 34.9652 74.3474 36.8902C74.3127 37.6602 74.1048 37.9402 73.5505 38.0452L73.6198 38.0102C73.204 38.1152 72.8575 38.1852 72.3377 38.2552C72.1645 38.4302 72.1645 39.4102 72.3377 39.6202C72.6842 39.6202 74.4167 39.5152 75.872 39.5152C77.847 39.5152 78.8865 39.6202 79.4062 39.6202C79.6141 39.3752 79.6834 38.4652 79.5448 38.2552C78.9558 38.2202 78.54 38.1502 78.1588 38.0452C77.6044 37.9402 77.4658 37.6602 77.4312 36.9952C77.3619 35.3852 77.3619 31.9901 77.3619 29.6451C77.3619 29.0151 77.5351 28.7001 77.7084 28.5251C78.4014 27.9301 79.5101 27.4751 80.515 27.4751C81.4852 27.4751 82.1089 27.7901 82.5939 28.1751C83.2523 28.7351 83.4602 29.5051 83.5641 30.1001C83.7027 31.3951 83.6681 33.9852 83.6681 36.2602C83.6681 37.4852 83.5641 37.7652 83.1137 37.9402C82.9058 38.0452 82.3514 38.1502 81.7277 38.2202C81.5198 38.4302 81.5891 39.3752 81.7277 39.5852C82.5939 39.5852 83.6334 39.4802 85.1233 39.4802C86.9944 39.4802 88.2071 39.5852 88.6922 39.5852C88.9001 39.4452 88.9694 38.5702 88.8308 38.3252ZM97.1813 26.7051C95.5875 26.7051 94.5826 27.9651 94.5826 29.8901C94.5826 31.8851 95.4489 34.1602 97.9436 34.1602C98.3594 34.1602 99.1563 33.9852 99.5028 33.5652C100.092 33.0051 100.473 31.9201 100.473 30.7651C100.473 28.2101 99.2256 26.7051 97.1813 26.7051ZM96.9734 40.1452C96.3844 40.1452 95.934 40.3202 95.6914 40.4952C94.4094 41.3002 93.855 42.1052 93.855 43.0502C93.855 43.9252 94.2015 44.6252 94.8945 45.2552C95.7607 46.0252 96.9734 46.3752 98.498 46.3752C101.582 46.3752 102.933 44.6952 102.933 43.0502C102.933 41.8952 102.344 41.1252 101.201 40.7052C100.334 40.3202 98.8098 40.1452 96.9734 40.1452ZM97.1813 48.0552C95.3449 48.0552 94.0282 47.6702 92.8848 46.7602C91.776 45.9202 91.2909 44.6252 91.2909 43.7502C91.2909 43.5052 91.3602 42.8402 91.88 42.2452C92.2265 41.8952 92.9195 41.1952 94.6519 40.0052C94.7212 39.9702 94.7559 39.9352 94.7559 39.9002C94.7559 39.8302 94.6866 39.7952 94.6519 39.7602C93.2313 39.2002 92.8155 38.3252 92.6769 37.8352V37.7302C92.6423 37.5552 92.573 37.3802 92.8502 37.1702C93.0581 37.0302 93.3699 36.8202 93.6817 36.6102C94.2015 36.2952 94.7212 35.9802 95.0677 35.7002C95.137 35.6302 95.137 35.5952 95.137 35.5252C95.137 35.4552 95.0677 35.4202 95.0331 35.3852C92.9195 34.6852 91.88 33.1102 91.88 30.7301C91.88 29.1901 92.573 27.7901 93.8203 26.8801C94.6519 26.2151 96.7655 25.3751 98.1515 25.3751H98.2555C99.6761 25.4101 100.438 25.7251 101.582 26.1101C102.171 26.3201 102.76 26.4251 103.557 26.4251C104.735 26.4251 105.255 26.0751 105.67 25.6201C105.705 25.6901 105.774 25.8301 105.774 26.2151C105.809 26.6001 105.67 27.1951 105.393 27.6151C105.151 27.9651 104.596 28.2101 104.077 28.2101H103.938C103.384 28.1401 103.141 28.1051 103.141 28.1051L103.037 28.1751C103.002 28.2451 103.037 28.2801 103.072 28.3851L103.106 28.4551C103.176 28.7351 103.28 29.5401 103.28 29.7501C103.28 32.2351 102.275 33.3552 101.235 34.1602C100.196 34.9302 99.0524 35.4202 97.7011 35.5252C97.6664 35.5252 97.5625 35.5252 97.2853 35.5602C97.1467 35.5602 96.9388 35.5952 96.9041 35.5952H96.8695C96.6269 35.6652 96.0379 35.9452 96.0379 36.4702C96.0379 36.9252 96.3151 37.4852 97.5971 37.5552C97.8743 37.5902 98.1515 37.5902 98.4287 37.6252C100.161 37.7302 102.275 37.9052 103.28 38.2202C104.666 38.7452 105.532 39.9702 105.532 41.4752C105.532 43.7152 103.938 45.8152 101.27 47.1452C99.884 47.7402 98.6019 48.0552 97.1813 48.0552ZM114.367 26.8451C113.744 26.8451 113.155 26.9851 112.739 27.3001C111.561 28.0351 110.972 29.5051 110.972 31.6051C110.972 35.5952 112.947 38.3952 115.788 38.3952C116.62 38.3952 117.278 38.1502 117.867 37.6602C118.733 36.9252 119.184 35.4552 119.184 33.4252C119.184 29.5051 117.209 26.8451 114.367 26.8451ZM114.887 39.8652C109.759 39.8652 107.923 36.0502 107.923 32.5151C107.923 30.0301 108.927 28.1051 110.902 26.7401C112.323 25.8651 114.021 25.3751 115.511 25.3751C119.426 25.3751 122.164 28.2101 122.164 32.2701C122.164 35.0352 121.089 37.2402 119.01 38.5702C118.04 39.2352 116.308 39.8652 114.887 39.8652ZM61.2153 26.8451C60.5916 26.8451 60.0026 26.9851 59.5868 27.3001C58.4087 28.0351 57.8196 29.5051 57.8196 31.6051C57.8196 35.5952 59.7947 38.3952 62.6359 38.3952C63.4675 38.3952 64.1258 38.1502 64.7149 37.6602C65.5811 36.9252 66.0315 35.4552 66.0315 33.4252C66.0315 29.5051 64.0912 26.8451 61.2153 26.8451ZM61.7697 39.8652C56.6416 39.8652 54.8052 36.0502 54.8052 32.5151C54.8052 30.0301 55.81 28.1051 57.785 26.7401C59.2056 25.8651 60.9034 25.3751 62.3934 25.3751C66.3087 25.3751 69.046 28.2101 69.046 32.2701C69.046 35.0352 67.9719 37.2402 65.893 38.5702C64.9228 39.2352 63.1903 39.8652 61.7697 39.8652ZM27.3282 39.5502C27.2589 39.4452 27.2243 39.2002 27.2243 38.8502C27.2243 38.6052 27.2936 38.4652 27.3282 38.3952C27.9519 38.2902 28.2984 38.2202 28.6449 38.1152C29.2339 37.9752 29.4765 37.6252 29.5111 36.8552C29.6151 35.0352 29.6151 31.5701 29.5804 29.1551V29.0851C29.5804 28.8051 29.5804 28.4901 29.2339 28.2451C28.7488 27.9301 28.1944 27.6501 27.4321 27.4401C27.155 27.3351 26.9817 27.1951 27.0164 27.0201C27.0164 26.8451 27.1896 26.6351 27.6054 26.5651C28.6102 26.4601 31.1743 25.8301 32.2138 25.3751C32.2831 25.4451 32.3524 25.6201 32.3524 25.8651L32.3177 26.2151C32.2831 26.5651 32.2484 26.9501 32.2484 27.3351C32.2484 27.4401 32.3524 27.5451 32.491 27.5451C32.5603 27.5451 32.5949 27.5101 32.6642 27.4751C34.6046 25.9701 36.337 25.4101 37.2379 25.4101C38.7278 25.4101 39.8713 26.1101 40.7375 27.5801C40.8068 27.6851 40.8415 27.6851 40.9454 27.6851C41.0147 27.6851 41.084 27.6501 41.1187 27.5801C42.8858 26.2151 44.6875 25.3751 45.8656 25.3751C48.6722 25.3751 50.3354 27.4751 50.3354 31.0451C50.3354 32.0601 50.3354 33.3552 50.3007 34.5452C50.3007 35.5952 50.2661 36.5752 50.2661 37.2752C50.2661 37.4152 50.474 37.9052 50.8205 38.0102C51.2363 38.2202 51.8253 38.3252 52.5529 38.4302H52.5876C52.6569 38.6402 52.5183 39.4452 52.4143 39.5852C52.2411 39.5852 51.9639 39.5852 51.6521 39.5502C51.063 39.5152 50.2661 39.4802 49.3652 39.4802C47.4941 39.4802 46.524 39.5152 45.5884 39.5852C45.5191 39.3402 45.4845 38.6052 45.5884 38.4302C46.1428 38.3252 46.3854 38.2552 46.7318 38.1502C47.3209 37.9752 47.4941 37.6952 47.5288 36.8902C47.5288 36.2952 47.6327 31.3951 47.4595 30.2051C47.2862 28.9801 46.3854 27.5451 44.3757 27.5451C43.6134 27.5451 42.4353 27.8601 41.2919 28.7351C41.2226 28.8051 41.1879 28.9451 41.1879 29.0501V29.0851C41.2919 29.7151 41.2919 30.4501 41.2919 31.5701V33.5652C41.2919 34.9302 41.2572 36.2252 41.2919 37.1702C41.2919 37.8352 41.673 37.9752 42.0195 38.1152C42.1928 38.1502 42.3314 38.1852 42.47 38.2202C42.7472 38.2902 43.0244 38.3252 43.4402 38.4302C43.5095 38.5352 43.5095 38.9552 43.4055 39.2702C43.3709 39.4452 43.3016 39.5502 43.3016 39.5852C42.2621 39.5502 41.2226 39.5152 39.698 39.5152C39.2476 39.5152 38.4506 39.5502 37.7923 39.5502C37.2379 39.5502 36.7528 39.5852 36.441 39.5852C36.4063 39.5152 36.337 39.3052 36.337 38.9902C36.337 38.7102 36.4063 38.5002 36.441 38.4302C36.5796 38.3952 36.7182 38.3602 36.8568 38.3602C37.2033 38.2902 37.5151 38.2552 37.827 38.1852C38.3467 38.0452 38.5199 37.7652 38.5546 37.1002C38.6585 35.5952 38.7278 31.2201 38.5199 30.1351C38.1735 28.3851 37.1686 27.4751 35.5747 27.4751C34.6392 27.4751 33.4611 27.9301 32.491 28.6651C32.3524 28.7701 32.2138 29.0851 32.2138 29.3651V31.1501C32.2138 33.3552 32.2138 36.0852 32.2484 37.2752C32.2831 37.6252 32.387 38.0802 33.08 38.2202C33.2186 38.2552 33.4611 38.3252 33.773 38.3252L34.3274 38.4302C34.3967 38.6052 34.362 39.3402 34.2234 39.5852C33.9116 39.5852 33.5651 39.5502 33.1493 39.5502C32.5256 39.5152 31.694 39.4802 30.7931 39.4802C29.7537 39.4802 28.9914 39.5152 28.3677 39.5502C28.0212 39.5502 27.6747 39.5502 27.3282 39.5502Z" fill="#442D22"/>
<path d="M11.4591 46.8653L10.2118 46.4453C10.2118 46.4453 10.3504 40.0753 8.09815 39.6203C6.60822 37.8703 8.34069 -35.2452 13.746 39.3753C13.746 39.3753 11.8749 40.3203 11.5631 41.9303C11.2166 43.5053 11.4591 46.8653 11.4591 46.8653Z" fill="white"/>
<path d="M11.4591 46.8653L10.2118 46.4453C10.2118 46.4453 10.3504 40.0753 8.09815 39.6203C6.60822 37.8703 8.34069 -35.2452 13.746 39.3753C13.746 39.3753 11.8749 40.3203 11.5631 41.9303C11.2166 43.5053 11.4591 46.8653 11.4591 46.8653Z" fill="#A6A385"/>
<path d="M12.1174 40.7052C12.1174 40.7052 22.928 33.5302 20.3986 18.5851C17.9731 7.73502 12.1867 4.165 11.563 2.8C10.87 1.81999 10.2117 0.10498 10.2117 0.10498L10.6621 30.3102C10.6968 30.3802 9.76123 39.5852 12.1174 40.7052Z" fill="white"/>
<path d="M12.1174 40.7052C12.1174 40.7052 22.928 33.5302 20.3986 18.5851C17.9731 7.73502 12.1867 4.165 11.563 2.8C10.87 1.81999 10.2117 0.10498 10.2117 0.10498L10.6621 30.3102C10.6968 30.3802 9.76123 39.5852 12.1174 40.7052Z" fill="#499D4A"/>
<path d="M9.5879 41.1252C9.5879 41.1252 -0.564364 34.1252 0.0246755 21.8051C0.613715 9.48505 7.75149 3.43002 9.13746 2.31001C10.073 1.33001 10.1076 0.980006 10.1769 0C10.8006 1.36501 10.6967 20.4751 10.766 22.7501C11.0432 31.3952 10.2809 39.4802 9.5879 41.1252Z" fill="white"/>
<path d="M9.5879 41.1252C9.5879 41.1252 -0.564364 34.1252 0.0246755 21.8051C0.613715 9.48505 7.75149 3.43002 9.13746 2.31001C10.073 1.33001 10.1076 0.980006 10.1769 0C10.8006 1.36501 10.6967 20.4751 10.766 22.7501C11.0432 31.3952 10.2809 39.4802 9.5879 41.1252Z" fill="#58AA50"/>
</svg>
