<svg width="58" height="65" viewBox="0 0 58 65" fill="none" xmlns="http://www.w3.org/2000/svg">
<path d="M28.8687 64.2501C28.0178 64.2501 27.1542 64.0217 26.405 63.5898L18.5693 58.9545C17.401 58.2941 17.9724 58.0656 18.3535 57.9384C19.9154 57.3924 20.2329 57.2783 21.8965 56.3256C22.0744 56.2242 22.303 56.2621 22.4807 56.3766L28.5003 59.945C28.7163 60.0719 29.0208 60.0719 29.2241 59.945L52.6805 46.407C52.8965 46.28 53.0359 46.026 53.0359 45.7721V18.6964C53.0359 18.4297 52.8965 18.1884 52.6679 18.0489L29.2242 4.52353C29.0084 4.39651 28.7164 4.39651 28.5005 4.52353L5.06954 18.0614C4.84081 18.1884 4.70126 18.4423 4.70126 18.7091V45.7721C4.70126 46.026 4.84081 46.28 5.06954 46.3945L11.4957 50.1027C14.9882 51.8424 17.1216 49.7979 17.1216 47.728V21.0076C17.1216 20.6267 17.4263 20.3347 17.8075 20.3347H20.7792C21.1475 20.3347 21.4649 20.6267 21.4649 21.0076V47.7407C21.4649 52.3886 18.9249 55.0556 14.5184 55.0556C13.1593 55.0556 12.0926 55.0556 9.1209 53.5825L2.97423 50.0393C1.45019 49.1629 0.510498 47.5246 0.510498 45.7596V18.6964C0.510498 16.9439 1.45019 15.293 2.97423 14.4167L26.405 0.878716C27.8908 0.0405907 29.8594 0.0405907 31.3325 0.878716L54.7891 14.4292C56.313 15.3055 57.2527 16.9438 57.2527 18.7091V45.7721C57.2527 47.5246 56.313 49.1629 54.7891 50.0519L31.3325 63.5898C30.5831 64.0217 29.7321 64.2501 28.8687 64.2501ZM47.8042 37.5683C47.8042 32.501 44.3752 31.1549 37.1746 30.2025C29.8847 29.2372 29.1483 28.7419 29.1483 27.0402C29.1483 25.6307 29.7706 23.751 35.1679 23.751C39.9813 23.751 41.7592 24.7924 42.4957 28.0436C42.5592 28.3483 42.8389 28.5769 43.156 28.5769H46.2043C46.3945 28.5769 46.5723 28.5008 46.6995 28.361C46.8267 28.2214 46.89 28.0308 46.8769 27.8402C46.4073 22.2399 42.6861 19.6364 35.1679 19.6364C28.4753 19.6364 24.4876 22.4557 24.4876 27.1927C24.4876 32.3233 28.4625 33.7459 34.8757 34.3805C42.5592 35.13 43.156 36.2603 43.156 37.7715C43.156 40.3879 41.0481 41.5051 36.1079 41.5051C29.8978 41.5051 28.5387 39.9431 28.0815 36.8573C28.0308 36.5271 27.7512 36.2859 27.4086 36.2859H24.3731C23.9922 36.2859 23.7003 36.5907 23.7003 36.9587C23.7003 40.9087 25.8465 45.6202 36.1207 45.6202C43.5371 45.6074 47.8042 42.6733 47.8042 37.5683Z" fill="#539E43"/>
</svg>
