<svg width="50" height="50" viewBox="0 0 50 50" fill="none" xmlns="http://www.w3.org/2000/svg">
<g clip-path="url(#clip0_21_173)">
<path d="M28.1809 0.20586C14.4892 -1.55039 1.96215 8.12461 0.205896 21.8184C-1.55035 35.51 8.12256 48.035 21.8163 49.7934C35.5101 51.5496 48.0392 41.8746 49.7913 28.1809C51.5496 14.4892 41.8767 1.96419 28.1809 0.20586ZM33.3288 15.7996C32.8649 15.8057 32.4217 15.9926 32.0934 16.3204L22.8163 25.5975L22.1767 24.9579L20.8371 23.6184C29.9809 14.5017 31.6288 14.4142 33.3288 15.7996ZM23.1976 25.9267L32.4476 16.6767C32.5688 16.5495 32.7147 16.4485 32.8764 16.3796C33.038 16.3108 33.212 16.2757 33.3877 16.2764C33.5634 16.2771 33.7371 16.3137 33.8981 16.3838C34.0592 16.454 34.2043 16.5562 34.3245 16.6844C34.4447 16.8125 34.5375 16.9638 34.5972 17.1291C34.6569 17.2943 34.6823 17.47 34.6717 17.6453C34.6612 17.8207 34.615 17.9921 34.536 18.149C34.457 18.3059 34.3468 18.4451 34.2122 18.5579L24.4226 27.1517L23.1976 25.9267ZM23.8851 27.3725L21.5934 27.8684C21.566 27.8745 21.5374 27.8713 21.5121 27.8592C21.4867 27.8471 21.4662 27.8269 21.4538 27.8017C21.4399 27.7776 21.4344 27.7496 21.4381 27.7221C21.4419 27.6945 21.4548 27.669 21.4746 27.6496L22.8184 26.3059L23.8851 27.3725ZM18.0455 26.4163L20.4871 23.9746L22.3184 25.8038L18.1955 26.6913C18.1611 26.7002 18.1247 26.697 18.0925 26.6822C18.0602 26.6674 18.034 26.6419 18.0184 26.61C17.999 26.5798 17.991 26.5437 17.996 26.5081C18.001 26.4726 18.0185 26.44 18.0455 26.4163ZM10.4496 39.0371C10.4288 39.0353 10.4086 39.0293 10.39 39.0196C10.3715 39.0099 10.3551 38.9967 10.3417 38.9806C10.3284 38.9645 10.3183 38.946 10.3122 38.926C10.306 38.906 10.3039 38.885 10.3059 38.8642C10.3098 38.828 10.326 38.7942 10.3517 38.7684H10.3559L12.3267 36.7975L14.8726 39.3434L10.4496 39.0371ZM15.5017 36.4204C15.4073 36.4692 15.3319 36.5483 15.2877 36.645C15.2435 36.7417 15.2331 36.8504 15.258 36.9538L15.6809 38.7559C15.6946 38.8114 15.6896 38.8699 15.6667 38.9223C15.6438 38.9747 15.6043 39.0181 15.5543 39.0458C15.5043 39.0735 15.4466 39.084 15.39 39.0757C15.3334 39.0673 15.2812 39.0406 15.2413 38.9996H15.2351L13.2892 37.0538L12.6767 36.4392L20.5142 28.61L24.3059 27.7913L26.1267 29.6121C23.5121 31.9079 19.9371 34.1975 15.5017 36.4204ZM26.4996 29.2788H26.4955L24.7476 27.5309L34.5371 18.9371C34.6277 18.8567 34.7107 18.7681 34.7851 18.6725C34.4767 21.4746 30.558 25.4329 26.4996 29.2788ZM34.1184 15.8204L34.1121 15.8163C33.4234 15.1242 33.0277 14.1933 33.0076 13.2171C32.9874 12.2408 33.3442 11.2944 34.0038 10.5744C34.6634 9.85446 35.5751 9.41638 36.5493 9.35123C37.5236 9.28608 38.4855 9.59888 39.2351 10.2246L35.8809 13.585C35.8577 13.6081 35.8392 13.6355 35.8266 13.6657C35.814 13.6959 35.8075 13.7283 35.8075 13.7611C35.8075 13.7938 35.814 13.8262 35.8266 13.8564C35.8392 13.8866 35.8577 13.9141 35.8809 13.9371L38.4788 16.535C37.7687 16.8875 36.9659 17.0082 36.1835 16.88C35.4012 16.7517 34.6788 16.3811 34.1184 15.8204ZM39.4892 15.8204C39.3169 15.9906 39.1278 16.1428 38.9246 16.2746L36.408 13.76L39.6017 10.5663C40.9788 12.0663 40.9288 14.3829 39.4892 15.8204ZM39.2809 12.6038C39.2308 12.6401 39.1933 12.6911 39.1735 12.7497C39.1537 12.8083 39.1526 12.8716 39.1705 12.9309C39.2447 13.0811 39.2737 13.2496 39.2541 13.416C39.2345 13.5823 39.1671 13.7395 39.0601 13.8684C39.0362 13.8984 39.0185 13.9329 39.008 13.9698C38.9975 14.0068 38.9944 14.0454 38.9988 14.0835C39.0033 14.1216 39.0152 14.1585 39.0339 14.192C39.0527 14.2255 39.0778 14.255 39.108 14.2788C39.158 14.318 39.2194 14.3399 39.283 14.3413C39.3251 14.3409 39.3667 14.3314 39.4048 14.3134C39.4429 14.2954 39.4767 14.2694 39.5038 14.2371C39.6828 14.0221 39.7952 13.7597 39.8274 13.4818C39.8596 13.2039 39.8101 12.9227 39.6851 12.6725C39.6632 12.6412 39.6354 12.6146 39.6032 12.5941C39.571 12.5737 39.535 12.5599 39.4974 12.5535C39.4598 12.5471 39.4213 12.5482 39.3841 12.5568C39.3469 12.5655 39.3118 12.5814 39.2809 12.6038Z" fill="#EF5B25"/>
</g>
<defs>
<clipPath id="clip0_21_173">
<rect width="50" height="50" fill="white"/>
</clipPath>
</defs>
</svg>
