<svg width="65" height="58" viewBox="0 0 65 58" fill="none" xmlns="http://www.w3.org/2000/svg">
<path d="M32.0538 34.9907C35.2829 34.9907 37.9005 32.373 37.9005 29.1439C37.9005 25.9149 35.2829 23.2972 32.0538 23.2972C28.8247 23.2972 26.207 25.9149 26.207 29.1439C26.207 32.373 28.8247 34.9907 32.0538 34.9907Z" fill="#61DAFB"/>
<path d="M32.0537 50.6449C36.6431 55.1086 41.1696 57.749 44.816 57.749C46.0105 57.749 47.1421 57.4976 48.0851 56.9317C51.3543 55.0457 52.5488 50.3306 51.4172 43.6036C51.2286 42.4091 50.9771 41.2146 50.6627 39.9573C51.9201 39.5801 53.0517 39.2029 54.1834 38.8257C60.5331 36.3738 64.0537 32.9789 64.0537 29.2697C64.0537 25.4976 60.5331 22.1027 54.1834 19.7137C53.0517 19.2736 51.9201 18.8964 50.6627 18.582C50.9771 17.3247 51.2286 16.1302 51.4172 14.9357C52.4859 8.08302 51.2914 3.30502 48.0223 1.41897C47.0793 0.853158 45.9476 0.601685 44.7531 0.601685C41.1696 0.601685 36.5802 3.24216 31.9908 7.70581C27.4643 3.24216 22.9378 0.601685 19.2914 0.601685C18.0969 0.601685 16.9653 0.853158 16.0223 1.41897C12.7531 3.30502 11.5586 8.02015 12.6903 14.7471C12.8789 15.9416 13.1303 17.1361 13.4447 18.3934C12.1873 18.7706 11.0557 19.1479 9.92404 19.5251C3.57434 21.9769 0.0537109 25.3718 0.0537109 29.0811C0.0537109 32.8532 3.57434 36.2481 9.92404 38.637C11.0557 39.0771 12.1873 39.4543 13.4447 39.7687C13.1303 41.026 12.8789 42.2205 12.6903 43.415C11.6215 50.142 12.816 54.92 16.0223 56.7431C16.9653 57.309 18.0969 57.5604 19.2914 57.5604C22.9378 57.6862 27.4643 55.0457 32.0537 50.6449ZM28.5331 42.1577C29.6647 42.2205 30.8592 42.2205 32.0537 42.2205C33.2482 42.2205 34.4427 42.2205 35.5743 42.1577C34.4427 43.6665 33.2482 45.0496 32.0537 46.3699C30.8592 45.0496 29.6647 43.6665 28.5331 42.1577ZM20.7374 35.6822C21.3661 36.751 21.9319 37.7569 22.6235 38.7628C20.6745 38.5113 18.8514 38.197 17.091 37.8198C17.6569 36.1223 18.2855 34.362 19.04 32.6017C19.5429 33.6076 20.1087 34.6763 20.7374 35.6822ZM17.091 20.531C18.8514 20.1537 20.6745 19.8394 22.6235 19.5879C21.9948 20.5938 21.3661 21.5997 20.7374 22.6685C20.1087 23.7372 19.5429 24.7431 19.04 25.8119C18.2227 23.9887 17.594 22.2284 17.091 20.531ZM20.5488 29.1439C21.3661 27.4465 22.2462 25.749 23.2521 24.0516C24.1952 22.417 25.2639 20.7824 26.3327 19.1479C28.2187 19.0221 30.1048 18.9592 32.0537 18.9592C34.0655 18.9592 35.9515 19.0221 37.7747 19.1479C38.9064 20.7824 39.9123 22.417 40.8553 24.0516C41.8612 25.749 42.7413 27.4465 43.5586 29.1439C42.7413 30.8414 41.8612 32.5388 40.8553 34.2363C39.9123 35.8708 38.8435 37.5054 37.7747 39.14C35.8887 39.2657 34.0026 39.3286 32.0537 39.3286C30.0419 39.3286 28.1559 39.2657 26.3327 39.14C25.2011 37.5054 24.1952 35.8708 23.2521 34.2363C22.2462 32.5388 21.3661 30.8414 20.5488 29.1439ZM45.1303 25.749L43.4329 22.6056C42.8042 21.5369 42.2384 20.531 41.5468 19.5251C43.4958 19.7765 45.3189 20.0909 47.0793 20.4681C46.5134 22.2284 45.8848 23.9887 45.1303 25.749ZM45.1303 32.5388C45.8848 34.2991 46.5134 36.0594 47.0793 37.7569C45.3189 38.1341 43.4958 38.4484 41.5468 38.6999C42.1755 37.694 42.8042 36.6881 43.4329 35.6194C43.9987 34.6763 44.5645 33.6076 45.1303 32.5388ZM46.5763 54.3541C46.0734 54.6685 45.4447 54.7942 44.7531 54.7942C41.6726 54.7942 37.8376 52.2795 34.0655 48.5074C35.8887 46.5585 37.649 44.3581 39.4093 41.9062C42.3641 41.6547 45.1932 41.2146 47.8337 40.586C48.148 41.7176 48.3366 42.8492 48.5252 43.9809C49.4054 49.3247 48.7138 53.1596 46.5763 54.3541ZM49.8455 21.2225C56.8867 23.2343 61.0989 26.3148 61.0989 29.1439C61.0989 31.5958 58.207 34.0477 53.1146 35.9966C52.1087 36.3738 50.9771 36.751 49.8455 37.0653C49.0282 34.4877 48.0223 31.8473 46.7649 29.1439C48.0223 26.4406 49.091 23.8001 49.8455 21.2225ZM44.816 3.49363C45.5075 3.49363 46.0734 3.61937 46.6392 3.93371C48.7138 5.12821 49.4683 8.90031 48.5881 14.307C48.3995 15.3758 48.148 16.5074 47.8965 17.7019C45.2561 17.1361 42.427 16.696 39.4722 16.3816C37.7747 13.9298 35.9516 11.7294 34.1284 9.78047C37.9005 6.07123 41.7354 3.49363 44.816 3.49363ZM35.5743 16.1302C34.4427 16.0673 33.2482 16.0673 32.0537 16.0673C30.8592 16.0673 29.6647 16.0673 28.5331 16.1302C29.6647 14.6213 30.8592 13.2382 32.0537 11.918C33.2482 13.2382 34.4427 14.6842 35.5743 16.1302ZM17.5311 3.93371C18.0341 3.61937 18.6627 3.49363 19.3543 3.49363C22.4348 3.49363 26.2698 6.00836 30.0419 9.78047C28.2187 11.7294 26.4584 13.9298 24.6981 16.3816C21.7433 16.6331 18.9142 17.0732 16.2738 17.7019C15.9594 16.5702 15.7708 15.4386 15.5822 14.307C14.702 8.96318 15.3936 5.19108 17.5311 3.93371ZM14.262 37.0653C7.22071 35.0536 3.00852 31.973 3.00852 29.1439C3.00852 26.6921 5.90047 24.2402 10.9928 22.2913C11.9987 21.9141 13.1303 21.5369 14.262 21.2225C15.0793 23.8001 16.0851 26.4406 17.3425 29.1439C16.0851 31.8473 15.0164 34.5506 14.262 37.0653ZM15.5822 43.9809C15.7708 42.9121 16.0223 41.7805 16.2738 40.586C18.9142 41.1518 21.7433 41.5919 24.6981 41.9062C26.3956 44.3581 28.2187 46.5585 30.0419 48.5074C26.2698 52.2166 22.4348 54.7942 19.3543 54.7942C18.6627 54.7942 18.0969 54.6685 17.5311 54.3541C15.3936 53.1596 14.702 49.3247 15.5822 43.9809Z" fill="#61DAFB"/>
</svg>
