<svg width="56" height="56" viewBox="0 0 56 56" fill="none" xmlns="http://www.w3.org/2000/svg">
<path d="M38.8104 38.5093C40.838 38.3343 42.4107 36.5493 42.308 34.4166C42.2007 32.284 40.453 30.5713 38.3227 30.5713H38.1804C35.98 30.6436 34.265 32.494 34.335 34.699C34.405 35.8166 34.8624 36.7266 35.4877 37.3893C33.0424 42.1446 29.372 45.64 23.8117 48.5776C20.0714 50.533 16.121 51.2703 12.2757 50.7453C9.06036 50.2926 6.54503 48.8553 5.00503 46.55C2.6997 43.0523 2.4897 39.2793 4.41003 35.504C5.81236 32.7763 7.9077 30.7836 9.3077 29.8036C8.9577 28.896 8.5377 27.3583 8.3277 26.2056C-2.02297 33.6186 -0.970636 43.7546 2.1747 48.545C4.51736 52.0403 9.3077 54.2756 14.5507 54.2756C15.9484 54.2756 17.4184 54.173 18.851 53.823C27.9417 52.0753 34.8274 46.6223 38.7777 38.5816L38.8104 38.5093ZM51.289 29.7686C45.8734 23.4056 37.9004 19.9103 28.8097 19.9103H27.6197C27.0294 18.6176 25.6667 17.8126 24.1267 17.8126H24.0217C21.8214 17.8126 20.1064 19.7026 20.1787 21.903C20.2487 23.9983 22.0314 25.7483 24.164 25.7483H24.3367C25.9117 25.6783 27.2744 24.6983 27.832 23.3006H29.127C34.5147 23.3006 39.6154 24.8733 44.2657 27.9486C47.8287 30.2913 50.3837 33.3666 51.8164 37.0393C53.0717 40.0446 53.004 42.9823 51.7114 45.4323C49.7187 49.2753 46.361 51.3053 41.923 51.3053C39.1254 51.3053 36.4 50.4303 35 49.8026C34.1624 50.498 32.7624 51.653 31.7474 52.353C34.8227 53.7483 37.9354 54.5533 40.9407 54.5533C47.7587 54.5533 52.8244 50.7103 54.7494 47.0026C56.8447 42.8073 56.672 35.7466 51.3217 29.6986L51.289 29.7686ZM15.1434 39.7646C15.211 41.8623 16.9937 43.61 19.1287 43.61H19.2687C21.5064 43.54 23.219 41.6896 23.114 39.4846C23.114 37.387 21.2964 35.6416 19.1637 35.6416H19.0214C18.8814 35.6416 18.6737 35.6416 18.4964 35.7093C15.596 30.814 14.371 25.5686 14.8284 19.9103C15.106 15.645 16.506 11.9373 19.0214 8.86198C21.119 6.23931 25.0694 4.94431 27.762 4.87664C35.3127 4.73431 38.4604 14.1423 38.703 17.8826L42.1984 18.9303C41.3934 7.46431 34.265 1.44897 27.447 1.44897C21.049 1.44897 15.1434 6.09931 12.7634 12.9173C9.51303 22.008 11.6457 30.7463 15.631 37.7393C15.2834 38.1943 15.0734 38.997 15.1434 39.7646Z" fill="#764ABC"/>
</svg>
