<svg width="95" height="49" viewBox="0 0 95 49" fill="none" xmlns="http://www.w3.org/2000/svg">
<path d="M41.0199 40.4972L40.0412 40.7741C39.9796 40.611 39.8888 40.4525 39.7688 40.2987C39.6519 40.1417 39.4918 40.0124 39.2887 39.9109C39.0856 39.8093 38.8255 39.7585 38.5085 39.7585C38.0746 39.7585 37.7129 39.8585 37.4237 40.0586C37.1374 40.2556 36.9943 40.5064 36.9943 40.8111C36.9943 41.0819 37.0928 41.2958 37.2898 41.4528C37.4867 41.6097 37.7945 41.7405 38.2131 41.8452L39.2656 42.1037C39.8996 42.2576 40.372 42.493 40.6829 42.81C40.9937 43.1239 41.1491 43.5286 41.1491 44.0241C41.1491 44.4304 41.0322 44.7936 40.7983 45.1136C40.5675 45.4337 40.2443 45.6861 39.8288 45.8707C39.4134 46.0554 38.9302 46.1477 38.3793 46.1477C37.656 46.1477 37.0574 45.9908 36.5835 45.6768C36.1095 45.3629 35.8094 44.9044 35.6832 44.3011L36.7173 44.0426C36.8158 44.4242 37.002 44.7105 37.2759 44.9013C37.5529 45.0921 37.9145 45.1875 38.3608 45.1875C38.8686 45.1875 39.2718 45.0798 39.5703 44.8643C39.8719 44.6458 40.0227 44.3842 40.0227 44.0795C40.0227 43.8333 39.9366 43.6271 39.7642 43.4609C39.5919 43.2917 39.3272 43.1655 38.9702 43.0824L37.7884 42.8054C37.139 42.6515 36.6619 42.413 36.3572 42.0898C36.0556 41.7636 35.9048 41.3558 35.9048 40.8665C35.9048 40.4664 36.0172 40.1125 36.2418 39.8047C36.4696 39.4969 36.7789 39.2553 37.1697 39.0799C37.5637 38.9045 38.0099 38.8168 38.5085 38.8168C39.2102 38.8168 39.7611 38.9706 40.1612 39.2784C40.5644 39.5862 40.8506 39.9924 41.0199 40.4972ZM47.2579 43.1009V38.9091H48.3474V46H47.2579V44.7997H47.184C47.0178 45.1598 46.7593 45.466 46.4085 45.7184C46.0576 45.9677 45.6144 46.0923 45.0789 46.0923C44.6357 46.0923 44.2418 45.9954 43.8971 45.8015C43.5524 45.6045 43.2816 45.3091 43.0846 44.9151C42.8876 44.5181 42.7892 44.018 42.7892 43.4148V38.9091H43.8786V43.3409C43.8786 43.858 44.0233 44.2704 44.3126 44.5781C44.605 44.8859 44.9774 45.0398 45.4298 45.0398C45.7006 45.0398 45.9761 44.9705 46.2561 44.832C46.5393 44.6935 46.7762 44.4812 46.9671 44.195C47.161 43.9087 47.2579 43.544 47.2579 43.1009ZM50.3429 48.6591V38.9091H51.3954V40.0355H51.5247C51.6047 39.9124 51.7155 39.7554 51.8571 39.5646C52.0017 39.3707 52.2079 39.1984 52.4757 39.0476C52.7465 38.8937 53.1127 38.8168 53.5744 38.8168C54.1715 38.8168 54.6977 38.966 55.1532 39.2646C55.6087 39.5631 55.9642 39.9863 56.2196 40.5341C56.4751 41.0819 56.6028 41.7282 56.6028 42.473C56.6028 43.224 56.4751 43.8749 56.2196 44.4258C55.9642 44.9736 55.6103 45.3983 55.1578 45.6999C54.7054 45.9985 54.1838 46.1477 53.5929 46.1477C53.1374 46.1477 52.7727 46.0723 52.4988 45.9215C52.2248 45.7676 52.014 45.5937 51.8663 45.3999C51.7186 45.2029 51.6047 45.0398 51.5247 44.9105H51.4324V48.6591H50.3429ZM51.4139 42.4545C51.4139 42.9901 51.4924 43.4625 51.6493 43.8718C51.8063 44.2781 52.0356 44.5966 52.3372 44.8274C52.6388 45.0552 53.0081 45.169 53.4451 45.169C53.9006 45.169 54.2807 45.049 54.5854 44.8089C54.8932 44.5658 55.124 44.2396 55.2779 43.8303C55.4348 43.4179 55.5133 42.9593 55.5133 42.4545C55.5133 41.956 55.4364 41.5066 55.2825 41.1065C55.1317 40.7034 54.9024 40.3848 54.5946 40.1509C54.29 39.9139 53.9068 39.7955 53.4451 39.7955C53.002 39.7955 52.6296 39.9078 52.3279 40.1325C52.0263 40.354 51.7986 40.6649 51.6447 41.065C51.4908 41.462 51.4139 41.9252 51.4139 42.4545ZM60.3514 46.1662C59.902 46.1662 59.4943 46.0816 59.128 45.9123C58.7618 45.7399 58.4709 45.4922 58.2555 45.169C58.0401 44.8428 57.9324 44.4489 57.9324 43.9872C57.9324 43.581 58.0124 43.2517 58.1724 42.9993C58.3324 42.7438 58.5463 42.5438 58.8141 42.3991C59.0819 42.2545 59.3773 42.1468 59.7005 42.076C60.0267 42.0021 60.3545 41.9437 60.6838 41.9006C61.1146 41.8452 61.464 41.8036 61.7317 41.7759C62.0025 41.7451 62.1995 41.6944 62.3226 41.6236C62.4488 41.5528 62.5119 41.4297 62.5119 41.2543V41.2173C62.5119 40.7618 62.3873 40.4079 62.138 40.1555C61.8917 39.9032 61.5178 39.777 61.0162 39.777C60.496 39.777 60.0882 39.8909 59.7928 40.1186C59.4973 40.3464 59.2896 40.5895 59.1696 40.848L58.1355 40.4787C58.3201 40.0478 58.5663 39.7124 58.8741 39.4723C59.185 39.2292 59.5235 39.0599 59.8897 38.9645C60.2591 38.866 60.6222 38.8168 60.9792 38.8168C61.207 38.8168 61.4686 38.8445 61.764 38.8999C62.0626 38.9522 62.3503 39.0614 62.6273 39.2276C62.9074 39.3938 63.1397 39.6446 63.3244 39.9801C63.5091 40.3156 63.6014 40.7649 63.6014 41.3281V46H62.5119V45.0398H62.4565C62.3826 45.1937 62.2595 45.3583 62.0872 45.5337C61.9148 45.7092 61.6855 45.8584 61.3993 45.9815C61.1131 46.1046 60.7638 46.1662 60.3514 46.1662ZM60.5176 45.1875C60.9484 45.1875 61.3116 45.1029 61.6071 44.9336C61.9056 44.7643 62.1303 44.5458 62.2811 44.2781C62.435 44.0103 62.5119 43.7287 62.5119 43.4332V42.4361C62.4657 42.4915 62.3642 42.5423 62.2072 42.5884C62.0533 42.6315 61.8748 42.67 61.6717 42.7038C61.4717 42.7346 61.2762 42.7623 61.0854 42.7869C60.8977 42.8085 60.7453 42.8269 60.6284 42.8423C60.3452 42.8793 60.0806 42.9393 59.8343 43.0224C59.5912 43.1024 59.3942 43.224 59.2434 43.3871C59.0957 43.5471 59.0218 43.7656 59.0218 44.0426C59.0218 44.4212 59.1619 44.7074 59.4419 44.9013C59.7251 45.0921 60.0836 45.1875 60.5176 45.1875ZM65.7377 46V36.5455H66.8271V40.0355H66.9195C66.9995 39.9124 67.1103 39.7554 67.2519 39.5646C67.3965 39.3707 67.6027 39.1984 67.8705 39.0476C68.1413 38.8937 68.5075 38.8168 68.9692 38.8168C69.5663 38.8168 70.0925 38.966 70.548 39.2646C71.0035 39.5631 71.359 39.9863 71.6144 40.5341C71.8699 41.0819 71.9976 41.7282 71.9976 42.473C71.9976 43.224 71.8699 43.8749 71.6144 44.4258C71.359 44.9736 71.0051 45.3983 70.5526 45.6999C70.1002 45.9985 69.5786 46.1477 68.9877 46.1477C68.5322 46.1477 68.1675 46.0723 67.8936 45.9215C67.6196 45.7676 67.4088 45.5937 67.2611 45.3999C67.1134 45.2029 66.9995 45.0398 66.9195 44.9105H66.7902V46H65.7377ZM66.8087 42.4545C66.8087 42.9901 66.8872 43.4625 67.0441 43.8718C67.2011 44.2781 67.4304 44.5966 67.732 44.8274C68.0336 45.0552 68.4029 45.169 68.8399 45.169C69.2954 45.169 69.6755 45.049 69.9802 44.8089C70.288 44.5658 70.5188 44.2396 70.6727 43.8303C70.8296 43.4179 70.9081 42.9593 70.9081 42.4545C70.9081 41.956 70.8312 41.5066 70.6773 41.1065C70.5265 40.7034 70.2972 40.3848 69.9894 40.1509C69.6847 39.9139 69.3016 39.7955 68.8399 39.7955C68.3968 39.7955 68.0244 39.9078 67.7227 40.1325C67.4211 40.354 67.1934 40.6649 67.0395 41.065C66.8856 41.462 66.8087 41.9252 66.8087 42.4545ZM75.7508 46.1662C75.3015 46.1662 74.8937 46.0816 74.5274 45.9123C74.1612 45.7399 73.8704 45.4922 73.6549 45.169C73.4395 44.8428 73.3318 44.4489 73.3318 43.9872C73.3318 43.581 73.4118 43.2517 73.5718 42.9993C73.7319 42.7438 73.9458 42.5438 74.2135 42.3991C74.4813 42.2545 74.7767 42.1468 75.0999 42.076C75.4261 42.0021 75.7539 41.9437 76.0832 41.9006C76.5141 41.8452 76.8634 41.8036 77.1311 41.7759C77.402 41.7451 77.5989 41.6944 77.722 41.6236C77.8482 41.5528 77.9113 41.4297 77.9113 41.2543V41.2173C77.9113 40.7618 77.7867 40.4079 77.5374 40.1555C77.2912 39.9032 76.9172 39.777 76.4156 39.777C75.8954 39.777 75.4877 39.8909 75.1922 40.1186C74.8968 40.3464 74.689 40.5895 74.569 40.848L73.5349 40.4787C73.7195 40.0478 73.9658 39.7124 74.2735 39.4723C74.5844 39.2292 74.9229 39.0599 75.2892 38.9645C75.6585 38.866 76.0216 38.8168 76.3786 38.8168C76.6064 38.8168 76.868 38.8445 77.1634 38.8999C77.462 38.9522 77.7497 39.0614 78.0267 39.2276C78.3068 39.3938 78.5392 39.6446 78.7238 39.9801C78.9085 40.3156 79.0008 40.7649 79.0008 41.3281V46H77.9113V45.0398H77.8559C77.782 45.1937 77.6589 45.3583 77.4866 45.5337C77.3142 45.7092 77.085 45.8584 76.7987 45.9815C76.5125 46.1046 76.1632 46.1662 75.7508 46.1662ZM75.917 45.1875C76.3479 45.1875 76.711 45.1029 77.0065 44.9336C77.305 44.7643 77.5297 44.5458 77.6805 44.2781C77.8344 44.0103 77.9113 43.7287 77.9113 43.4332V42.4361C77.8651 42.4915 77.7636 42.5423 77.6066 42.5884C77.4527 42.6315 77.2742 42.67 77.0711 42.7038C76.8711 42.7346 76.6756 42.7623 76.4848 42.7869C76.2971 42.8085 76.1447 42.8269 76.0278 42.8423C75.7446 42.8793 75.48 42.9393 75.2338 43.0224C74.9906 43.1024 74.7936 43.224 74.6428 43.3871C74.4951 43.5471 74.4213 43.7656 74.4213 44.0426C74.4213 44.4212 74.5613 44.7074 74.8414 44.9013C75.1245 45.0921 75.483 45.1875 75.917 45.1875ZM86.0121 40.4972L85.0334 40.7741C84.9718 40.611 84.881 40.4525 84.761 40.2987C84.6441 40.1417 84.484 40.0124 84.2809 39.9109C84.0778 39.8093 83.8177 39.7585 83.5007 39.7585C83.0668 39.7585 82.7051 39.8585 82.4158 40.0586C82.1296 40.2556 81.9865 40.5064 81.9865 40.8111C81.9865 41.0819 82.085 41.2958 82.282 41.4528C82.4789 41.6097 82.7867 41.7405 83.2053 41.8452L84.2578 42.1037C84.8918 42.2576 85.3642 42.493 85.6751 42.81C85.9859 43.1239 86.1413 43.5286 86.1413 44.0241C86.1413 44.4304 86.0244 44.7936 85.7905 45.1136C85.5597 45.4337 85.2365 45.6861 84.821 45.8707C84.4055 46.0554 83.9223 46.1477 83.3714 46.1477C82.6482 46.1477 82.0496 45.9908 81.5756 45.6768C81.1017 45.3629 80.8016 44.9044 80.6754 44.3011L81.7095 44.0426C81.808 44.4242 81.9942 44.7105 82.2681 44.9013C82.5451 45.0921 82.9067 45.1875 83.353 45.1875C83.8608 45.1875 84.264 45.0798 84.5625 44.8643C84.8641 44.6458 85.0149 44.3842 85.0149 44.0795C85.0149 43.8333 84.9287 43.6271 84.7564 43.4609C84.584 43.2917 84.3194 43.1655 83.9624 43.0824L82.7805 42.8054C82.1312 42.6515 81.6541 42.413 81.3494 42.0898C81.0478 41.7636 80.897 41.3558 80.897 40.8665C80.897 40.4664 81.0094 40.1125 81.234 39.8047C81.4618 39.4969 81.7711 39.2553 82.1619 39.0799C82.5559 38.9045 83.0021 38.8168 83.5007 38.8168C84.2024 38.8168 84.7533 38.9706 85.1534 39.2784C85.5566 39.5862 85.8428 39.9924 86.0121 40.4972ZM90.7544 46.1477C90.0711 46.1477 89.4817 45.9969 88.9862 45.6953C88.4938 45.3906 88.1137 44.9659 87.846 44.4212C87.5813 43.8733 87.449 43.2363 87.449 42.5099C87.449 41.7836 87.5813 41.1435 87.846 40.5895C88.1137 40.0324 88.4861 39.5985 88.9632 39.2876C89.4433 38.9737 90.0034 38.8168 90.6436 38.8168C91.0129 38.8168 91.3776 38.8783 91.7377 39.0014C92.0977 39.1245 92.4255 39.3246 92.721 39.6016C93.0164 39.8755 93.2519 40.2386 93.4273 40.6911C93.6027 41.1435 93.6904 41.7005 93.6904 42.3622V42.8239H88.2245V41.8821H92.5825C92.5825 41.482 92.5025 41.125 92.3424 40.8111C92.1855 40.4972 91.9608 40.2494 91.6684 40.0678C91.3791 39.8862 91.0375 39.7955 90.6436 39.7955C90.2096 39.7955 89.8341 39.9032 89.5171 40.1186C89.2032 40.331 88.9616 40.608 88.7923 40.9496C88.6231 41.2912 88.5384 41.6574 88.5384 42.0483V42.6761C88.5384 43.2116 88.6308 43.6656 88.8154 44.038C89.0032 44.4073 89.2632 44.6889 89.5956 44.8828C89.928 45.0736 90.3142 45.169 90.7544 45.169C91.0406 45.169 91.2991 45.129 91.5299 45.049C91.7638 44.9659 91.9654 44.8428 92.1347 44.6797C92.3039 44.5135 92.4347 44.3073 92.5271 44.0611L93.5796 44.3565C93.4688 44.7135 93.2826 45.0275 93.021 45.2983C92.7594 45.5661 92.4363 45.7753 92.0516 45.9261C91.6669 46.0739 91.2345 46.1477 90.7544 46.1477Z" fill="#737373"/>
<path d="M45.3189 21.0711L26.6632 45.1765C25.2982 46.799 22.6819 45.8719 22.6819 43.7858V29.763H2.88863C0.49979 29.763 -0.86526 26.8657 0.613545 25.0114L18.928 0.905978C20.1793 -0.832394 22.7956 0.0947384 22.7956 2.29668V16.3195H42.9301C45.5464 16.3195 46.9115 19.1009 45.3189 21.0711Z" fill="#71C674"/>
</svg>
