<svg width="60" height="36" viewBox="0 0 60 36" fill="none" xmlns="http://www.w3.org/2000/svg">
<path d="M49.5 10.5447C47.2502 9.77131 45.2643 8.38079 43.77 6.53255C42.1231 4.4733 40.0262 2.81727 37.6395 1.69114C35.2528 0.565018 32.6397 -0.00136179 30 0.0353294C26.4491 -0.215651 22.9338 0.877408 20.154 3.09683C17.3743 5.31625 15.5341 8.49919 15 12.0118C16.052 10.255 17.6354 8.87654 19.5222 8.07487C21.409 7.27321 23.502 7.08963 25.5 7.55055C27.7461 8.34641 29.7287 9.74502 31.23 11.5926C32.8859 13.6354 34.9868 15.2743 37.373 16.3846C39.7592 17.495 42.3677 18.0474 45 18C48.5509 18.251 52.0662 17.1579 54.846 14.9385C57.6257 12.7191 59.4659 9.53614 60 6.02355C58.9671 7.80137 57.3888 9.20062 55.4981 10.0147C53.6074 10.8288 51.5046 11.0146 49.5 10.5447ZM10.5 25.4553C12.7498 26.2287 14.7357 27.6192 16.23 29.4674C17.8769 31.5267 19.9738 33.1827 22.3605 34.3089C24.7472 35.435 27.3603 36.0014 30 35.9647C33.5509 36.2157 37.0662 35.1226 39.846 32.9032C42.6257 30.6838 44.4659 27.5008 45 23.9882C43.948 25.745 42.3646 27.1235 40.4778 27.9251C38.591 28.7268 36.498 28.9104 34.5 28.4494C32.2539 27.6536 30.2713 26.255 28.77 24.4074C27.1097 22.3697 25.0079 20.7343 22.6227 19.6245C20.2376 18.5147 17.6313 17.9592 15 18C11.4491 17.749 7.93375 18.8421 5.15402 21.0615C2.37428 23.2809 0.534126 26.4639 0 29.9764C1.03292 28.1986 2.61122 26.7994 4.5019 25.9853C6.39258 25.1712 8.49543 24.9854 10.5 25.4553Z" fill="#38BDF8"/>
</svg>
