<svg width="58" height="58" viewBox="0 0 58 58" fill="none" xmlns="http://www.w3.org/2000/svg">
<g clip-path="url(#clip0_21_158)">
<path d="M52.3353 0H5.66467C2.5375 0 0 2.5375 0 5.66467V52.3353C0 55.4625 2.5375 58 5.66467 58H52.3353C55.4625 58 58 55.4625 58 52.3353V5.66467C58 2.5375 55.4625 0 52.3353 0ZM33.6448 32.1803H26.3707V52.9008H20.6069V32.1803H13.3666V27.5258H33.6448V32.1803ZM52.4368 49.2275C51.3083 51.2454 49.2347 52.3813 47.0283 52.8525C44.4667 53.3987 41.7431 53.3697 39.1742 52.8888C37.9151 52.6519 36.8252 52.2991 35.9044 51.8254V46.1535C36.9339 47.0163 38.0504 47.6639 39.2563 48.0941C40.4622 48.5267 41.6802 48.7418 42.9079 48.7418C43.9954 48.7418 45.2062 48.6064 46.1438 48.0071C46.7867 47.5963 47.2168 46.9486 47.2168 46.1728C47.2168 45.1168 46.4532 44.3192 45.6291 43.7634C44.4232 42.9514 43.0384 42.4222 41.702 41.8663C39.7155 41.0398 38.2365 40.0297 37.2602 38.8358C35.5637 36.7599 35.2858 33.4443 36.5956 31.1001C37.7145 29.0991 39.7759 27.9198 41.9509 27.3953C44.3217 26.825 46.8954 26.825 49.3 27.1996C50.3223 27.3591 51.2648 27.6032 52.1275 27.9343V33.234C51.7022 32.9392 51.2382 32.6782 50.7355 32.4558C49.7447 32.0136 48.6741 31.7139 47.5987 31.5689C46.5233 31.4239 45.3898 31.3997 44.3289 31.6487C43.4928 31.842 42.6131 32.2311 42.1298 32.9778C41.9292 33.292 41.8277 33.6424 41.8277 34.0315C41.8277 34.4568 41.9388 34.8387 42.1636 35.1746C42.7315 36.0277 43.732 36.5763 44.6286 37.0185C46.2043 37.7918 47.8573 38.3718 49.3701 39.2684C50.8394 40.136 52.1444 41.3443 52.7824 42.9538C53.0893 43.7272 53.244 44.6286 53.244 45.6557C53.2416 47.0743 52.9733 48.2657 52.4368 49.2275Z" fill="#3178C6"/>
</g>
<defs>
<clipPath id="clip0_21_158">
<rect width="58" height="58" fill="white"/>
</clipPath>
</defs>
</svg>
