<svg width="46" height="48" viewBox="0 0 46 48" fill="none" xmlns="http://www.w3.org/2000/svg">
<path d="M45.106 6.96349L34.0465 0.34232C33.9967 0.312892 33.9414 0.298179 33.888 0.274269C33.1562 -0.163464 32.2106 -0.0843774 31.6042 0.563025L16.0858 17.1546L7.53314 9.33055C6.96911 8.81557 6.14333 8.70338 5.46317 9.0418L1.01909 11.258C0.497446 11.5174 0.130639 12.0048 0.0292597 12.5768C-0.0721193 13.1488 0.0993033 13.7336 0.495603 14.1566L9.6916 23.9891L0.495603 33.8215C0.0993033 34.2445 -0.0739625 34.8312 0.0292597 35.4014C0.132482 35.9715 0.499289 36.4608 1.01909 36.7201L5.46317 38.9382C5.72491 39.0688 6.00693 39.1313 6.28711 39.1313C6.70921 39.1313 7.12947 38.986 7.46863 38.7046L16.4619 31.2264L31.6042 47.4151C31.9673 47.8032 32.4595 48 32.9516 48C33.2889 48 33.6133 47.8768 33.9101 47.6929C33.9543 47.6708 34.0023 47.6616 34.0447 47.6358L45.1042 41.0147C45.659 40.6836 46 40.084 46 39.4385V8.53969C46 7.89413 45.659 7.29454 45.106 6.96349ZM6.03274 35.109L4.87333 34.5314L12.2113 26.6854L13.9403 28.5338L6.03274 35.109ZM31.254 41.6492L4.87333 13.4467L5.97744 12.8968L31.254 36.0175V41.6492ZM31.254 31.0259L24.3252 24.688L31.254 18.9276V31.0259ZM31.254 14.1383L21.5824 22.1793L18.8046 19.6375L31.254 6.32896V14.1383ZM42.3135 38.3956L34.9405 42.8097V5.16657L42.3135 9.58069V38.3956Z" fill="#0078D7"/>
</svg>
